<?xml version="1.0" encoding="UTF-8" standalone="no"?><svg xmlns="http://www.w3.org/2000/svg" xmlns:xlink="http://www.w3.org/1999/xlink" contentStyleType="text/css" height="276px" preserveAspectRatio="none" style="width:426px;height:276px;background:#FFFFFF;" version="1.1" viewBox="0 0 426 276" width="426px" zoomAndPan="magnify"><defs/><g><ellipse cx="217.5" cy="20" fill="#222222" rx="10" ry="10" style="stroke:#222222;stroke-width:1.0;"/><rect fill="#F1F1F1" height="33.9688" rx="12.5" ry="12.5" style="stroke:#181818;stroke-width:0.5;" width="198" x="118.5" y="50"/><text fill="#000000" font-family="sans-serif" font-size="12" lengthAdjust="spacing" textLength="178" x="128.5" y="71.1387">Création du panier de produit</text><rect fill="#F1F1F1" height="33.9688" rx="12.5" ry="12.5" style="stroke:#181818;stroke-width:0.5;" width="276" x="79.5" y="103.9688"/><text fill="#000000" font-family="sans-serif" font-size="12" lengthAdjust="spacing" textLength="256" x="89.5" y="125.1074">Validation panier (donnée envouer au TPE)</text><polygon fill="#F1F1F1" points="133.5,157.9375,301.5,157.9375,313.5,169.9375,301.5,181.9375,133.5,181.9375,121.5,169.9375,133.5,157.9375" style="stroke:#181818;stroke-width:0.5;"/><text fill="#000000" font-family="sans-serif" font-size="11" lengthAdjust="spacing" textLength="168" x="133.5" y="173.7456">Choix du moyen de payment</text><text fill="#000000" font-family="sans-serif" font-size="11" lengthAdjust="spacing" textLength="22" x="99.5" y="167.3433">NFC</text><text fill="#000000" font-family="sans-serif" font-size="11" lengthAdjust="spacing" textLength="44" x="313.5" y="167.3433">QRcode</text><rect fill="#F1F1F1" height="33.9688" rx="12.5" ry="12.5" style="stroke:#181818;stroke-width:0.5;" width="201" x="11" y="191.9375"/><text fill="#000000" font-family="sans-serif" font-size="12" lengthAdjust="spacing" textLength="181" x="21" y="213.0762">Passage de la carte sur le TPE</text><ellipse cx="111.5" cy="255.9063" fill="none" rx="10" ry="10" style="stroke:#222222;stroke-width:1.5;"/><line style="stroke:#222222;stroke-width:2.5;" x1="105.3128" x2="117.6872" y1="249.7191" y2="262.0934"/><line style="stroke:#222222;stroke-width:2.5;" x1="117.6872" x2="105.3128" y1="249.7191" y2="262.0934"/><rect fill="#F1F1F1" height="33.9688" rx="12.5" ry="12.5" style="stroke:#181818;stroke-width:0.5;" width="183" x="232" y="191.9375"/><text fill="#000000" font-family="sans-serif" font-size="12" lengthAdjust="spacing" textLength="163" x="242" y="213.0762">Scan du QRcode par le TPE</text><ellipse cx="323.5" cy="255.9063" fill="none" rx="10" ry="10" style="stroke:#222222;stroke-width:1.5;"/><line style="stroke:#222222;stroke-width:2.5;" x1="317.3128" x2="329.6872" y1="249.7191" y2="262.0934"/><line style="stroke:#222222;stroke-width:2.5;" x1="329.6872" x2="317.3128" y1="249.7191" y2="262.0934"/><line style="stroke:#181818;stroke-width:1.0;" x1="217.5" x2="217.5" y1="30" y2="50"/><polygon fill="#181818" points="213.5,40,217.5,50,221.5,40,217.5,44" style="stroke:#181818;stroke-width:1.0;"/><line style="stroke:#181818;stroke-width:1.0;" x1="217.5" x2="217.5" y1="83.9688" y2="103.9688"/><polygon fill="#181818" points="213.5,93.9688,217.5,103.9688,221.5,93.9688,217.5,97.9688" style="stroke:#181818;stroke-width:1.0;"/><line style="stroke:#181818;stroke-width:1.0;" x1="111.5" x2="111.5" y1="225.9063" y2="245.9063"/><polygon fill="#181818" points="107.5,235.9063,111.5,245.9063,115.5,235.9063,111.5,239.9063" style="stroke:#181818;stroke-width:1.0;"/><line style="stroke:#181818;stroke-width:1.0;" x1="323.5" x2="323.5" y1="225.9063" y2="245.9063"/><polygon fill="#181818" points="319.5,235.9063,323.5,245.9063,327.5,235.9063,323.5,239.9063" style="stroke:#181818;stroke-width:1.0;"/><line style="stroke:#181818;stroke-width:1.0;" x1="121.5" x2="111.5" y1="169.9375" y2="169.9375"/><line style="stroke:#181818;stroke-width:1.0;" x1="111.5" x2="111.5" y1="169.9375" y2="191.9375"/><polygon fill="#181818" points="107.5,181.9375,111.5,191.9375,115.5,181.9375,111.5,185.9375" style="stroke:#181818;stroke-width:1.0;"/><line style="stroke:#181818;stroke-width:1.0;" x1="313.5" x2="323.5" y1="169.9375" y2="169.9375"/><line style="stroke:#181818;stroke-width:1.0;" x1="323.5" x2="323.5" y1="169.9375" y2="191.9375"/><polygon fill="#181818" points="319.5,181.9375,323.5,191.9375,327.5,181.9375,323.5,185.9375" style="stroke:#181818;stroke-width:1.0;"/><line style="stroke:#181818;stroke-width:1.0;" x1="217.5" x2="217.5" y1="137.9375" y2="157.9375"/><polygon fill="#181818" points="213.5,147.9375,217.5,157.9375,221.5,147.9375,217.5,151.9375" style="stroke:#181818;stroke-width:1.0;"/><!--MD5=[d6481d1f79a2536b000b163854d16a8a]
@startuml
start
:Création du panier de produit;
:Validation panier (donnée envouer au TPE);
if (Choix du moyen de payment) then (NFC)
    :Passage de la carte sur le TPE;
end
else(QRcode)
    :Scan du QRcode par le TPE;
end
@enduml

PlantUML version 1.2022.13beta8(Unknown compile time)
(GPL source distribution)
Java Runtime: Java(TM) SE Runtime Environment
JVM: Java HotSpot(TM) 64-Bit Server VM
Default Encoding: UTF-8
Language: en
Country: US
--></g></svg>