<?xml version="1.0" encoding="UTF-8" standalone="no"?><svg xmlns="http://www.w3.org/2000/svg" xmlns:xlink="http://www.w3.org/1999/xlink" contentStyleType="text/css" height="376px" preserveAspectRatio="none" style="width:265px;height:376px;background:#FFFFFF;" version="1.1" viewBox="0 0 265 376" width="265px" zoomAndPan="magnify"><defs/><g><!--MD5=[0b23e3825ec464653af5665dda269e63]
entity MobileApp--><g id="elem_MobileApp"><ellipse cx="67.5" cy="29" fill="#F1F1F1" rx="8" ry="8" style="stroke:#181818;stroke-width:0.5;"/><text fill="#000000" font-family="sans-serif" font-size="14" lengthAdjust="spacing" textLength="78" x="28.5" y="58.9951">MobileApp</text></g><!--MD5=[84cec7ed05c77d14f65b7b1cd1884118]
entity BankServer--><g id="elem_BankServer"><polygon fill="#F1F1F1" points="125,16,135,6,248,6,248,42.2969,238,52.2969,125,52.2969,125,16" style="stroke:#181818;stroke-width:0.5;"/><line style="stroke:#181818;stroke-width:0.5;" x1="238" x2="248" y1="16" y2="6"/><line style="stroke:#181818;stroke-width:0.5;" x1="125" x2="238" y1="16" y2="16"/><line style="stroke:#181818;stroke-width:0.5;" x1="238" x2="238" y1="16" y2="52.2969"/><text fill="#000000" font-family="sans-serif" font-size="14" lengthAdjust="spacing" textLength="83" x="140" y="38.9951">BankServer</text></g><!--MD5=[fa1e3283224feb76407c84b7e90ed808]
entity Database--><g id="elem_Database"><path d="M149.5,122.5 C149.5,112.5 193.5,112.5 193.5,112.5 C193.5,112.5 237.5,112.5 237.5,122.5 L237.5,147.7969 C237.5,157.7969 193.5,157.7969 193.5,157.7969 C193.5,157.7969 149.5,157.7969 149.5,147.7969 L149.5,122.5 " fill="#F1F1F1" style="stroke:#181818;stroke-width:0.5;"/><path d="M149.5,122.5 C149.5,132.5 193.5,132.5 193.5,132.5 C193.5,132.5 237.5,132.5 237.5,122.5 " fill="none" style="stroke:#181818;stroke-width:0.5;"/><text fill="#000000" font-family="sans-serif" font-size="14" lengthAdjust="spacing" textLength="68" x="159.5" y="149.4951">Database</text></g><!--MD5=[b16ab7ecc4b708083afa06a4a9d67c17]
entity 4 screens--><g id="elem_4 screens"><rect fill="#F1F1F1" height="46.2969" rx="2.5" ry="2.5" style="stroke:#181818;stroke-width:0.5;" width="107" x="7" y="112"/><rect fill="#F1F1F1" height="10" style="stroke:#181818;stroke-width:0.5;" width="15" x="94" y="117"/><rect fill="#F1F1F1" height="2" style="stroke:#181818;stroke-width:0.5;" width="4" x="92" y="119"/><rect fill="#F1F1F1" height="2" style="stroke:#181818;stroke-width:0.5;" width="4" x="92" y="123"/><text fill="#000000" font-family="sans-serif" font-size="14" lengthAdjust="spacing" textLength="67" x="22" y="144.9951">4 screens</text></g><!--MD5=[23689a62b5e80204d759960f89ec0344]
entity Login--><g id="elem_Login"><rect fill="#F1F1F1" height="46.2969" rx="2.5" ry="2.5" style="stroke:#181818;stroke-width:0.5;" width="79" x="21" y="218"/><rect fill="#F1F1F1" height="10" style="stroke:#181818;stroke-width:0.5;" width="15" x="80" y="223"/><rect fill="#F1F1F1" height="2" style="stroke:#181818;stroke-width:0.5;" width="4" x="78" y="225"/><rect fill="#F1F1F1" height="2" style="stroke:#181818;stroke-width:0.5;" width="4" x="78" y="229"/><text fill="#000000" font-family="sans-serif" font-size="14" lengthAdjust="spacing" textLength="39" x="36" y="250.9951">Login</text></g><!--MD5=[2ff09eb542f7dc511dbd4d46f4900c31]
entity Products--><g id="elem_Products"><rect fill="#F1F1F1" height="46.2969" rx="2.5" ry="2.5" style="stroke:#181818;stroke-width:0.5;" width="103" x="135" y="218"/><rect fill="#F1F1F1" height="10" style="stroke:#181818;stroke-width:0.5;" width="15" x="218" y="223"/><rect fill="#F1F1F1" height="2" style="stroke:#181818;stroke-width:0.5;" width="4" x="216" y="225"/><rect fill="#F1F1F1" height="2" style="stroke:#181818;stroke-width:0.5;" width="4" x="216" y="229"/><text fill="#000000" font-family="sans-serif" font-size="14" lengthAdjust="spacing" textLength="63" x="150" y="250.9951">Products</text></g><!--MD5=[76729866e8073ac2769573ac45e04328]
entity Cart--><g id="elem_Cart"><rect fill="#F1F1F1" height="46.2969" rx="2.5" ry="2.5" style="stroke:#181818;stroke-width:0.5;" width="71" x="151" y="324"/><rect fill="#F1F1F1" height="10" style="stroke:#181818;stroke-width:0.5;" width="15" x="202" y="329"/><rect fill="#F1F1F1" height="2" style="stroke:#181818;stroke-width:0.5;" width="4" x="200" y="331"/><rect fill="#F1F1F1" height="2" style="stroke:#181818;stroke-width:0.5;" width="4" x="200" y="335"/><text fill="#000000" font-family="sans-serif" font-size="14" lengthAdjust="spacing" textLength="31" x="166" y="356.9951">Cart</text></g><!--MD5=[1f684f0298694fdc450f2524689bdb7b]
entity Payment--><g id="elem_Payment"><rect fill="#F1F1F1" height="46.2969" rx="2.5" ry="2.5" style="stroke:#181818;stroke-width:0.5;" width="104" x="11.5" y="324"/><rect fill="#F1F1F1" height="10" style="stroke:#181818;stroke-width:0.5;" width="15" x="95.5" y="329"/><rect fill="#F1F1F1" height="2" style="stroke:#181818;stroke-width:0.5;" width="4" x="93.5" y="331"/><rect fill="#F1F1F1" height="2" style="stroke:#181818;stroke-width:0.5;" width="4" x="93.5" y="335"/><text fill="#000000" font-family="sans-serif" font-size="14" lengthAdjust="spacing" textLength="64" x="26.5" y="356.9951">Payment</text></g><!--MD5=[6bf8587e263a2a526212fbc484136464]
link BankServer to Database--><g id="link_BankServer_Database"><path d="M187.985,52.056 C189.18,69.824 190.853,94.668 192.042,112.333 " fill="none" id="BankServer-Database" style="stroke:#181818;stroke-width:1.0;"/></g><!--MD5=[016a9b7c9a186daa1bbf3429505ab92d]
link MobileApp to BankServer--><g id="link_MobileApp_BankServer"><path d="M76.7969,29 C92.7952,29 108.794,29 124.792,29 " fill="none" id="MobileApp-BankServer" style="stroke:#181818;stroke-width:1.0;"/></g><!--MD5=[2aa63d991adde1a8e93df453ea98a05e]
link MobileApp to 4 screens--><g id="link_MobileApp_4 screens"><path d="M66.9507,38.161 C65.8936,53.867 63.5435,88.782 61.9909,111.849 " fill="none" id="MobileApp-4 screens" style="stroke:#181818;stroke-width:1.0;"/></g><!--MD5=[f67e5b55ad3698a59f9119aa0dbd5af7]
link 4 screens to Login--><g id="link_4 screens_Login"><path d="M60.5,158.056 C60.5,175.705 60.5,200.335 60.5,217.976 " fill="none" id="4 screens-Login" style="stroke:#181818;stroke-width:1.0;stroke-dasharray:7.0,7.0;"/></g><!--MD5=[2e9260f6ca8a98e2ef5af3b0745e721c]
link Login to Products--><g id="link_Login_Products"><path d="M100.3672,241 C110.109,241 119.85,241 129.592,241 " fill="none" id="Login-to-Products" style="stroke:#181818;stroke-width:1.0;"/><polygon fill="#181818" points="134.686,241,125.686,237,129.686,241,125.686,245,134.686,241" style="stroke:#181818;stroke-width:1.0;"/></g><!--MD5=[4f07c7d4bdff16429f0498245ca4f0ba]
link Products to Cart--><g id="link_Products_Cart"><path d="M186.5,264.056 C186.5,280.0503 186.5,301.7785 186.5,318.8418 " fill="none" id="Products-to-Cart" style="stroke:#181818;stroke-width:1.0;"/><polygon fill="#181818" points="186.5,323.9761,190.5,314.9761,186.5,318.9761,182.5,314.9761,186.5,323.9761" style="stroke:#181818;stroke-width:1.0;"/></g><!--MD5=[7889c7488ea9b15178d080c0a05a2876]
link Payment to Cart--><g id="link_Payment_Cart"><path d="M115.871,347 C127.551,347 139.23,347 150.91,347 " fill="none" id="Payment-Cart" style="stroke:#181818;stroke-width:1.0;"/></g><!--MD5=[55ffbdd1191e9577bdd78e7c7741cbdd]
@startuml
() MobileApp
node BankServer
database Database
[4 screens]

BankServer - - Database
MobileApp - BankServer
MobileApp - - [4 screens]

[Login]
[Products]
[Cart]
[Payment]

[4 screens] .. [Login]
[Login] -> [Products]
[Products] - -> [Cart]
[Payment] - [Cart]
@enduml

PlantUML version 1.2022.13beta7(Unknown compile time)
(GPL source distribution)
Java Runtime: Java(TM) SE Runtime Environment
JVM: Java HotSpot(TM) 64-Bit Server VM
Default Encoding: UTF-8
Language: en
Country: US
--></g></svg>