<?xml version="1.0" encoding="UTF-8" standalone="no"?><svg xmlns="http://www.w3.org/2000/svg" xmlns:xlink="http://www.w3.org/1999/xlink" contentStyleType="text/css" height="376px" preserveAspectRatio="none" style="width:303px;height:376px;background:#FFFFFF;" version="1.1" viewBox="0 0 303 376" width="303px" zoomAndPan="magnify"><defs/><g><!--MD5=[7834c98123f1c4562cddfb113b7a8668]
entity AppliMobile--><g id="elem_AppliMobile"><ellipse cx="111.5" cy="29" fill="#F1F1F1" rx="8" ry="8" style="stroke:#181818;stroke-width:0.5;"/><text fill="#000000" font-family="sans-serif" font-size="14" lengthAdjust="spacing" textLength="86" x="68.5" y="58.9951">AppliMobile</text></g><!--MD5=[cb508c78a4d3ac1ad55a22f6e28f76b8]
entity bankServer--><g id="elem_bankServer"><polygon fill="#F1F1F1" points="156,16,166,6,279,6,279,42.2969,269,52.2969,156,52.2969,156,16" style="stroke:#181818;stroke-width:0.5;"/><line style="stroke:#181818;stroke-width:0.5;" x1="269" x2="279" y1="16" y2="6"/><line style="stroke:#181818;stroke-width:0.5;" x1="156" x2="269" y1="16" y2="16"/><line style="stroke:#181818;stroke-width:0.5;" x1="269" x2="269" y1="16" y2="52.2969"/><text fill="#000000" font-family="sans-serif" font-size="14" lengthAdjust="spacing" textLength="83" x="171" y="38.9951">bankServer</text></g><!--MD5=[f9ba5bf973e7832d2ce5ed59077b93f7]
entity DB--><g id="elem_DB"><path d="M197,122.5 C197,112.5 217.5,112.5 217.5,112.5 C217.5,112.5 238,112.5 238,122.5 L238,147.7969 C238,157.7969 217.5,157.7969 217.5,157.7969 C217.5,157.7969 197,157.7969 197,147.7969 L197,122.5 " fill="#F1F1F1" style="stroke:#181818;stroke-width:0.5;"/><path d="M197,122.5 C197,132.5 217.5,132.5 217.5,132.5 C217.5,132.5 238,132.5 238,122.5 " fill="none" style="stroke:#181818;stroke-width:0.5;"/><text fill="#000000" font-family="sans-serif" font-size="14" lengthAdjust="spacing" textLength="21" x="207" y="149.4951">DB</text></g><!--MD5=[6d97a8ebc413f5ee859beb72e9fdadfe]
entity 4 ecran--><g id="elem_4 ecran"><rect fill="#F1F1F1" height="46.2969" rx="2.5" ry="2.5" style="stroke:#181818;stroke-width:0.5;" width="92" x="65.5" y="112"/><rect fill="#F1F1F1" height="10" style="stroke:#181818;stroke-width:0.5;" width="15" x="137.5" y="117"/><rect fill="#F1F1F1" height="2" style="stroke:#181818;stroke-width:0.5;" width="4" x="135.5" y="119"/><rect fill="#F1F1F1" height="2" style="stroke:#181818;stroke-width:0.5;" width="4" x="135.5" y="123"/><text fill="#000000" font-family="sans-serif" font-size="14" lengthAdjust="spacing" textLength="52" x="80.5" y="144.9951">4 ecran</text></g><!--MD5=[2c4d6263d6a9c508a624946e4f5b83db]
entity login--><g id="elem_login"><rect fill="#F1F1F1" height="46.2969" rx="2.5" ry="2.5" style="stroke:#181818;stroke-width:0.5;" width="75" x="74" y="218"/><rect fill="#F1F1F1" height="10" style="stroke:#181818;stroke-width:0.5;" width="15" x="129" y="223"/><rect fill="#F1F1F1" height="2" style="stroke:#181818;stroke-width:0.5;" width="4" x="127" y="225"/><rect fill="#F1F1F1" height="2" style="stroke:#181818;stroke-width:0.5;" width="4" x="127" y="229"/><text fill="#000000" font-family="sans-serif" font-size="14" lengthAdjust="spacing" textLength="35" x="89" y="250.9951">login</text></g><!--MD5=[ea42f3eac0a733429333b9da40ef1393]
entity produits--><g id="elem_produits"><rect fill="#F1F1F1" height="46.2969" rx="2.5" ry="2.5" style="stroke:#181818;stroke-width:0.5;" width="100" x="184.5" y="218"/><rect fill="#F1F1F1" height="10" style="stroke:#181818;stroke-width:0.5;" width="15" x="264.5" y="223"/><rect fill="#F1F1F1" height="2" style="stroke:#181818;stroke-width:0.5;" width="4" x="262.5" y="225"/><rect fill="#F1F1F1" height="2" style="stroke:#181818;stroke-width:0.5;" width="4" x="262.5" y="229"/><text fill="#000000" font-family="sans-serif" font-size="14" lengthAdjust="spacing" textLength="60" x="199.5" y="250.9951">produits</text></g><!--MD5=[9257d6dc09b3b8b223a8415c9340da5f]
entity Total Panier--><g id="elem_Total Panier"><rect fill="#F1F1F1" height="46.2969" rx="2.5" ry="2.5" style="stroke:#181818;stroke-width:0.5;" width="126" x="171.5" y="324"/><rect fill="#F1F1F1" height="10" style="stroke:#181818;stroke-width:0.5;" width="15" x="277.5" y="329"/><rect fill="#F1F1F1" height="2" style="stroke:#181818;stroke-width:0.5;" width="4" x="275.5" y="331"/><rect fill="#F1F1F1" height="2" style="stroke:#181818;stroke-width:0.5;" width="4" x="275.5" y="335"/><text fill="#000000" font-family="sans-serif" font-size="14" lengthAdjust="spacing" textLength="86" x="186.5" y="356.9951">Total Panier</text></g><!--MD5=[5755d538f75a07248094e9858ad73d70]
entity Payer Panier--><g id="elem_Payer Panier"><rect fill="#F1F1F1" height="46.2969" rx="2.5" ry="2.5" style="stroke:#181818;stroke-width:0.5;" width="129" x="7" y="324"/><rect fill="#F1F1F1" height="10" style="stroke:#181818;stroke-width:0.5;" width="15" x="116" y="329"/><rect fill="#F1F1F1" height="2" style="stroke:#181818;stroke-width:0.5;" width="4" x="114" y="331"/><rect fill="#F1F1F1" height="2" style="stroke:#181818;stroke-width:0.5;" width="4" x="114" y="335"/><text fill="#000000" font-family="sans-serif" font-size="14" lengthAdjust="spacing" textLength="89" x="22" y="356.9951">Payer Panier</text></g><!--MD5=[d8237987c60c7b2ad280587ba2c9f98b]
link bankServer to DB--><g id="link_bankServer_DB"><path d="M217.5,52.056 C217.5,69.824 217.5,94.668 217.5,112.333 " fill="none" id="bankServer-DB" style="stroke:#181818;stroke-width:1.0;"/></g><!--MD5=[9e8734ccfbdde4845aadbe9a4bbd80a6]
link AppliMobile to bankServer--><g id="link_AppliMobile_bankServer"><path d="M120.609,29 C132.342,29 144.075,29 155.808,29 " fill="none" id="AppliMobile-bankServer" style="stroke:#181818;stroke-width:1.0;"/></g><!--MD5=[561884a5e6740e56a73b56ab6c10be47]
link AppliMobile to 4 ecran--><g id="link_AppliMobile_4 ecran"><path d="M111.5,38.161 C111.5,53.867 111.5,88.782 111.5,111.849 " fill="none" id="AppliMobile-4 ecran" style="stroke:#181818;stroke-width:1.0;"/></g><!--MD5=[6f08b82159ee4b2955d1b662e89c7629]
link 4 ecran to login--><g id="link_4 ecran_login"><path d="M111.5,158.056 C111.5,175.705 111.5,200.335 111.5,217.976 " fill="none" id="4 ecran-login" style="stroke:#181818;stroke-width:1.0;stroke-dasharray:7.0,7.0;"/></g><!--MD5=[8061331cb3b4fe03f6c8b66b28df3620]
link login to produits--><g id="link_login_produits"><path d="M149.457,241 C159.358,241 169.259,241 179.16,241 " fill="none" id="login-to-produits" style="stroke:#181818;stroke-width:1.0;"/><polygon fill="#181818" points="184.338,241,175.338,237,179.338,241,175.338,245,184.338,241" style="stroke:#181818;stroke-width:1.0;"/></g><!--MD5=[481c261ffb4e322c278b6d46fbdaf643]
link produits to Total Panier--><g id="link_produits_Total Panier"><path d="M234.5,264.056 C234.5,280.0503 234.5,301.7785 234.5,318.8418 " fill="none" id="produits-to-Total Panier" style="stroke:#181818;stroke-width:1.0;"/><polygon fill="#181818" points="234.5,323.9761,238.5,314.9761,234.5,318.9761,230.5,314.9761,234.5,323.9761" style="stroke:#181818;stroke-width:1.0;"/></g><!--MD5=[f064d8666ea3f5453d2cb2a623cc18b1]
link Payer Panier to Total Panier--><g id="link_Payer Panier_Total Panier"><path d="M136.127,347 C147.911,347 159.695,347 171.48,347 " fill="none" id="Payer Panier-Total Panier" style="stroke:#181818;stroke-width:1.0;"/></g><!--MD5=[6686b4b6f6e6b73d5ade9150001f876f]
@startuml
() AppliMobile
node bankServer
database DB
[4 ecran]

bankServer - - DB
AppliMobile - bankServer
AppliMobile - - [4 ecran]

[login]
[produits]
[Total Panier]
[Payer Panier]

[4 ecran] .. [login]
[login] -> [produits]
[produits] - -> [Total Panier]
[Payer Panier] - [Total Panier]
@enduml

PlantUML version 1.2022.13beta7(Unknown compile time)
(GPL source distribution)
Java Runtime: Java(TM) SE Runtime Environment
JVM: Java HotSpot(TM) 64-Bit Server VM
Default Encoding: UTF-8
Language: en
Country: US
--></g></svg>