<?xml version="1.0" encoding="UTF-8" standalone="no"?><svg xmlns="http://www.w3.org/2000/svg" xmlns:xlink="http://www.w3.org/1999/xlink" contentStyleType="text/css" height="415px" preserveAspectRatio="none" style="width:526px;height:415px;background:#FFFFFF;" version="1.1" viewBox="0 0 526 415" width="526px" zoomAndPan="magnify"><defs/><g><!--class User--><g id="elem_User"><rect codeLine="3" fill="#F1F1F1" height="137.7813" id="User" rx="2.5" ry="2.5" style="stroke:#181818;stroke-width:0.5;" width="155" x="27.5" y="7"/><ellipse cx="85.25" cy="23" fill="#ADD1B2" rx="11" ry="11" style="stroke:#181818;stroke-width:1.0;"/><path d="M87.5938,18.6719 C86.6563,18.2344 86.0625,18.0938 85.1875,18.0938 C82.5625,18.0938 80.5625,20.1719 80.5625,22.8906 L80.5625,24.0156 C80.5625,26.5938 82.6719,28.4844 85.5625,28.4844 C86.7813,28.4844 87.9375,28.1875 88.6875,27.6406 C89.2656,27.2344 89.5938,26.7813 89.5938,26.3906 C89.5938,25.9375 89.2031,25.5469 88.7344,25.5469 C88.5156,25.5469 88.3125,25.625 88.125,25.8125 C87.6719,26.2969 87.6719,26.2969 87.4844,26.3906 C87.0625,26.6563 86.375,26.7813 85.6094,26.7813 C83.5625,26.7813 82.2656,25.6875 82.2656,23.9844 L82.2656,22.8906 C82.2656,21.1094 83.5156,19.7969 85.25,19.7969 C85.8281,19.7969 86.4375,19.9531 86.9063,20.2031 C87.3906,20.4844 87.5625,20.7031 87.6563,21.1094 C87.7188,21.5156 87.75,21.6406 87.8906,21.7656 C88.0313,21.9063 88.2656,22.0156 88.4844,22.0156 C88.75,22.0156 89.0156,21.875 89.1875,21.6563 C89.2969,21.5 89.3281,21.3125 89.3281,20.8906 L89.3281,19.4688 C89.3281,19.0313 89.3125,18.9063 89.2188,18.75 C89.0625,18.4844 88.7813,18.3438 88.4844,18.3438 C88.1875,18.3438 87.9844,18.4375 87.7656,18.75 L87.5938,18.6719 Z " fill="#000000"/><text fill="#000000" font-family="sans-serif" font-size="14" lengthAdjust="spacing" textLength="31" x="105.75" y="27.8467">User</text><line style="stroke:#181818;stroke-width:0.5;" x1="28.5" x2="181.5" y1="39" y2="39"/><rect fill="none" height="6" style="stroke:#C82930;stroke-width:1.0;" width="6" x="35.5" y="49.6484"/><text fill="#000000" font-family="sans-serif" font-size="14" lengthAdjust="spacing" textLength="78" x="47.5" y="55.9951">id: number</text><rect fill="none" height="6" style="stroke:#C82930;stroke-width:1.0;" width="6" x="35.5" y="65.9453"/><text fill="#000000" font-family="sans-serif" font-size="14" lengthAdjust="spacing" textLength="122" x="47.5" y="72.292">firstName: string</text><rect fill="none" height="6" style="stroke:#C82930;stroke-width:1.0;" width="6" x="35.5" y="82.2422"/><text fill="#000000" font-family="sans-serif" font-size="14" lengthAdjust="spacing" textLength="118" x="47.5" y="88.5889">lastName: string</text><rect fill="none" height="6" style="stroke:#C82930;stroke-width:1.0;" width="6" x="35.5" y="98.5391"/><text fill="#000000" font-family="sans-serif" font-size="14" lengthAdjust="spacing" textLength="121" x="47.5" y="104.8857">username: string</text><rect fill="none" height="6" style="stroke:#C82930;stroke-width:1.0;" width="6" x="35.5" y="114.8359"/><text fill="#000000" font-family="sans-serif" font-size="14" lengthAdjust="spacing" textLength="115" x="47.5" y="121.1826">account_id: uuid</text><rect fill="none" height="6" style="stroke:#C82930;stroke-width:1.0;" width="6" x="35.5" y="131.1328"/><text fill="#000000" font-family="sans-serif" font-size="14" lengthAdjust="spacing" textLength="129" x="47.5" y="137.4795">is_admin: boolean</text></g><!--class Account--><g id="elem_Account"><rect codeLine="12" fill="#F1F1F1" height="186.6719" id="Account" rx="2.5" ry="2.5" style="stroke:#181818;stroke-width:0.5;" width="196" x="7" y="222"/><ellipse cx="71.25" cy="238" fill="#ADD1B2" rx="11" ry="11" style="stroke:#181818;stroke-width:1.0;"/><path d="M73.5938,233.6719 C72.6563,233.2344 72.0625,233.0938 71.1875,233.0938 C68.5625,233.0938 66.5625,235.1719 66.5625,237.8906 L66.5625,239.0156 C66.5625,241.5938 68.6719,243.4844 71.5625,243.4844 C72.7813,243.4844 73.9375,243.1875 74.6875,242.6406 C75.2656,242.2344 75.5938,241.7813 75.5938,241.3906 C75.5938,240.9375 75.2031,240.5469 74.7344,240.5469 C74.5156,240.5469 74.3125,240.625 74.125,240.8125 C73.6719,241.2969 73.6719,241.2969 73.4844,241.3906 C73.0625,241.6563 72.375,241.7813 71.6094,241.7813 C69.5625,241.7813 68.2656,240.6875 68.2656,238.9844 L68.2656,237.8906 C68.2656,236.1094 69.5156,234.7969 71.25,234.7969 C71.8281,234.7969 72.4375,234.9531 72.9063,235.2031 C73.3906,235.4844 73.5625,235.7031 73.6563,236.1094 C73.7188,236.5156 73.75,236.6406 73.8906,236.7656 C74.0313,236.9063 74.2656,237.0156 74.4844,237.0156 C74.75,237.0156 75.0156,236.875 75.1875,236.6563 C75.2969,236.5 75.3281,236.3125 75.3281,235.8906 L75.3281,234.4688 C75.3281,234.0313 75.3125,233.9063 75.2188,233.75 C75.0625,233.4844 74.7813,233.3438 74.4844,233.3438 C74.1875,233.3438 73.9844,233.4375 73.7656,233.75 L73.5938,233.6719 Z " fill="#000000"/><text fill="#000000" font-family="sans-serif" font-size="14" lengthAdjust="spacing" textLength="59" x="91.75" y="242.8467">Account</text><line style="stroke:#181818;stroke-width:0.5;" x1="8" x2="202" y1="254" y2="254"/><rect fill="none" height="6" style="stroke:#C82930;stroke-width:1.0;" width="6" x="15" y="264.6484"/><text fill="#000000" font-family="sans-serif" font-size="14" lengthAdjust="spacing" textLength="78" x="27" y="270.9951">id: number</text><rect fill="none" height="6" style="stroke:#C82930;stroke-width:1.0;" width="6" x="15" y="280.9453"/><text fill="#000000" font-family="sans-serif" font-size="14" lengthAdjust="spacing" textLength="161" x="27" y="287.292">credit_card_rfif: string</text><rect fill="none" height="6" style="stroke:#C82930;stroke-width:1.0;" width="6" x="15" y="297.2422"/><text fill="#000000" font-family="sans-serif" font-size="14" lengthAdjust="spacing" textLength="139" x="27" y="303.5889">cheque_uuid: string</text><rect fill="none" height="6" style="stroke:#C82930;stroke-width:1.0;" width="6" x="15" y="313.5391"/><text fill="#000000" font-family="sans-serif" font-size="14" lengthAdjust="spacing" textLength="121" x="27" y="319.8857">balance: number</text><rect fill="none" height="6" style="stroke:#C82930;stroke-width:1.0;" width="6" x="15" y="329.8359"/><text fill="#000000" font-family="sans-serif" font-size="14" lengthAdjust="spacing" textLength="161" x="27" y="336.1826">refusal_count: number</text><rect fill="none" height="6" style="stroke:#C82930;stroke-width:1.0;" width="6" x="15" y="346.1328"/><text fill="#000000" font-family="sans-serif" font-size="14" lengthAdjust="spacing" textLength="112" x="27" y="352.4795">ceiling: number</text><rect fill="none" height="6" style="stroke:#C82930;stroke-width:1.0;" width="6" x="15" y="362.4297"/><text fill="#000000" font-family="sans-serif" font-size="14" lengthAdjust="spacing" textLength="170" x="27" y="368.7764">max_overdraft: number</text><rect fill="none" height="6" style="stroke:#C82930;stroke-width:1.0;" width="6" x="15" y="378.7266"/><text fill="#000000" font-family="sans-serif" font-size="14" lengthAdjust="spacing" textLength="120" x="27" y="385.0732">created_at: date</text><rect fill="none" height="6" style="stroke:#C82930;stroke-width:1.0;" width="6" x="15" y="395.0234"/><text fill="#000000" font-family="sans-serif" font-size="14" lengthAdjust="spacing" textLength="125" x="27" y="401.3701">blocked: boolean</text></g><!--class Transaction--><g id="elem_Transaction"><rect codeLine="24" fill="#F1F1F1" height="170.375" id="Transaction" rx="2.5" ry="2.5" style="stroke:#181818;stroke-width:0.5;" width="190" x="329" y="230.5"/><ellipse cx="377.75" cy="246.5" fill="#ADD1B2" rx="11" ry="11" style="stroke:#181818;stroke-width:1.0;"/><path d="M380.0938,242.1719 C379.1563,241.7344 378.5625,241.5938 377.6875,241.5938 C375.0625,241.5938 373.0625,243.6719 373.0625,246.3906 L373.0625,247.5156 C373.0625,250.0938 375.1719,251.9844 378.0625,251.9844 C379.2813,251.9844 380.4375,251.6875 381.1875,251.1406 C381.7656,250.7344 382.0938,250.2813 382.0938,249.8906 C382.0938,249.4375 381.7031,249.0469 381.2344,249.0469 C381.0156,249.0469 380.8125,249.125 380.625,249.3125 C380.1719,249.7969 380.1719,249.7969 379.9844,249.8906 C379.5625,250.1563 378.875,250.2813 378.1094,250.2813 C376.0625,250.2813 374.7656,249.1875 374.7656,247.4844 L374.7656,246.3906 C374.7656,244.6094 376.0156,243.2969 377.75,243.2969 C378.3281,243.2969 378.9375,243.4531 379.4063,243.7031 C379.8906,243.9844 380.0625,244.2031 380.1563,244.6094 C380.2188,245.0156 380.25,245.1406 380.3906,245.2656 C380.5313,245.4063 380.7656,245.5156 380.9844,245.5156 C381.25,245.5156 381.5156,245.375 381.6875,245.1563 C381.7969,245 381.8281,244.8125 381.8281,244.3906 L381.8281,242.9688 C381.8281,242.5313 381.8125,242.4063 381.7188,242.25 C381.5625,241.9844 381.2813,241.8438 380.9844,241.8438 C380.6875,241.8438 380.4844,241.9375 380.2656,242.25 L380.0938,242.1719 Z " fill="#000000"/><text fill="#000000" font-family="sans-serif" font-size="14" lengthAdjust="spacing" textLength="84" x="398.25" y="251.3467">Transaction</text><line style="stroke:#181818;stroke-width:0.5;" x1="330" x2="518" y1="262.5" y2="262.5"/><rect fill="none" height="6" style="stroke:#C82930;stroke-width:1.0;" width="6" x="337" y="273.1484"/><text fill="#000000" font-family="sans-serif" font-size="14" lengthAdjust="spacing" textLength="78" x="349" y="279.4951">id: number</text><rect fill="none" height="6" style="stroke:#C82930;stroke-width:1.0;" width="6" x="337" y="289.4453"/><text fill="#000000" font-family="sans-serif" font-size="14" lengthAdjust="spacing" textLength="120" x="349" y="295.792">amount: number</text><rect fill="none" height="6" style="stroke:#C82930;stroke-width:1.0;" width="6" x="337" y="305.7422"/><text fill="#000000" font-family="sans-serif" font-size="14" lengthAdjust="spacing" textLength="75" x="349" y="312.0889">date: date</text><rect fill="none" height="6" style="stroke:#C82930;stroke-width:1.0;" width="6" x="337" y="322.0391"/><text fill="#000000" font-family="sans-serif" font-size="14" lengthAdjust="spacing" textLength="164" x="349" y="328.3857">account_from: number</text><rect fill="none" height="6" style="stroke:#C82930;stroke-width:1.0;" width="6" x="337" y="338.3359"/><text fill="#000000" font-family="sans-serif" font-size="14" lengthAdjust="spacing" textLength="145" x="349" y="344.6826">account_to: number</text><rect fill="none" height="6" style="stroke:#C82930;stroke-width:1.0;" width="6" x="337" y="354.6328"/><text fill="#000000" font-family="sans-serif" font-size="14" lengthAdjust="spacing" textLength="113" x="349" y="360.9795">cancel: boolean</text><rect fill="none" height="6" style="stroke:#C82930;stroke-width:1.0;" width="6" x="337" y="370.9297"/><text fill="#000000" font-family="sans-serif" font-size="14" lengthAdjust="spacing" textLength="85" x="349" y="377.2764">type: string</text><rect fill="none" height="6" style="stroke:#C82930;stroke-width:1.0;" width="6" x="337" y="387.2266"/><text fill="#000000" font-family="sans-serif" font-size="14" lengthAdjust="spacing" textLength="112" x="349" y="393.5732">TPE_id: number</text></g><!--link User to Account--><g id="link_User_Account"><path codeLine="35" d="M105,145.058 C105,168.908 105,196.118 105,221.648 " fill="none" id="User-Account" style="stroke:#181818;stroke-width:1.0;"/><text fill="#000000" font-family="sans-serif" font-size="13" lengthAdjust="spacing" textLength="23" x="106" y="188.0669">has</text><text fill="#000000" font-family="sans-serif" font-size="13" lengthAdjust="spacing" textLength="8" x="96.5875" y="165.0381">1</text><text fill="#000000" font-family="sans-serif" font-size="13" lengthAdjust="spacing" textLength="24" x="80.0813" y="210.9728">0..1</text></g><!--link Account to Transaction--><g id="link_Account_Transaction"><path codeLine="36" d="M203.313,315.5 C243.222,315.5 289.154,315.5 328.745,315.5 " fill="none" id="Account-Transaction" style="stroke:#181818;stroke-width:1.0;"/><text fill="#000000" font-family="sans-serif" font-size="13" lengthAdjust="spacing" textLength="89" x="221.5" y="308.5669">account_from</text><text fill="#000000" font-family="sans-serif" font-size="13" lengthAdjust="spacing" textLength="8" x="211.1463" y="312.0103">1</text><text fill="#000000" font-family="sans-serif" font-size="13" lengthAdjust="spacing" textLength="23" x="297.9052" y="328.1088">0..*</text></g><!--link Account to Transaction--><g id="link_Account_Transaction"><path codeLine="38" d="M203.028,332.7424 C211.956,333.8603 220.88,334.8121 229.5,335.5 C261.842,338.0812 270.163,338.1437 302.5,335.5 C311.023,334.8032 319.848,333.8359 328.674,332.6996 " fill="none" id="Account-Transaction-1" style="stroke:#181818;stroke-width:1.0;"/><text fill="#000000" font-family="sans-serif" font-size="13" lengthAdjust="spacing" textLength="71" x="230.5" y="331.5669">account_to</text><text fill="#000000" font-family="sans-serif" font-size="13" lengthAdjust="spacing" textLength="8" x="211.1584" y="330.604">1</text><text fill="#000000" font-family="sans-serif" font-size="13" lengthAdjust="spacing" textLength="23" x="298.1628" y="346.4947">0..*</text></g><!--SRC=[bP9FJyGW4CNlV0hIeqatUktDWrVZOJsJAGoMo1zt0ACnVdTfjqJBTW_sHDymx_q6c8n2xZ1DGKN6f8KO-ND4ub-Cbw_dHWtSPpSYhO8s5DCZE1nuJ6JyowgNrZqv5pD_AOEK8ViaPlkSZQffKO1onWzy3C4YUFPTgUxF7TV19A4oIKWW9KWRtIJA2KyPnHpML4Qmu2KsTeGwHx1YIMsZqDZItwWEFaHuHr84Ebt2GK8be1HKMTLe6-GhgfrnZmG-Wamc-EiZWzk1c-qt8VMiDGNN6gob55hU-KJiBzTPJPzlxKKUdnx47wx2lpoVxgxZVS-xsyEXhEhT3No2oEhVicVPSjDjvXqsoEm_3Idy0000]--></g></svg>