<?xml version="1.0" encoding="UTF-8" standalone="no"?><svg xmlns="http://www.w3.org/2000/svg" xmlns:xlink="http://www.w3.org/1999/xlink" contentStyleType="text/css" height="474px" preserveAspectRatio="none" style="width:351px;height:474px;background:#FFFFFF;" version="1.1" viewBox="0 0 351 474" width="351px" zoomAndPan="magnify"><defs/><g><!--MD5=[3fd616f346a44cd59a91eb10b19e157c]
class User--><g id="elem_User"><rect codeLine="1" fill="#F1F1F1" height="162.4075" id="User" rx="2.5" ry="2.5" style="stroke:#181818;stroke-width:0.5;" width="142" x="25" y="7"/><ellipse cx="77.25" cy="23" fill="#ADD1B2" rx="11" ry="11" style="stroke:#181818;stroke-width:1.0;"/><path d="M77.3594,18.2813 Q76.4375,18.2813 75.7031,18.5938 Q74.9844,18.9063 74.4844,19.5 Q73.9844,20.0781 73.7031,20.9531 Q73.4375,21.8281 73.4375,22.9219 Q73.4375,24.3594 73.875,25.4063 Q74.3281,26.4531 75.1719,27 Q76.0313,27.5469 77.3438,27.5469 Q78.125,27.5469 78.8125,27.4219 Q79.5156,27.2813 80.5156,26.9688 L80.5156,28.8438 Q79.6563,29.1719 78.8906,29.2969 Q78.1406,29.4219 77.125,29.4219 Q75.2031,29.4219 73.8906,28.625 Q72.5938,27.8125 71.9375,26.3438 Q71.2813,24.8594 71.2813,22.8906 Q71.2813,21.4688 71.6719,20.2969 Q72.0781,19.1094 72.8594,18.2344 Q73.6406,17.3594 74.7813,16.8906 Q75.9219,16.4063 77.3906,16.4063 Q78.3438,16.4063 79.2344,16.6094 Q80.1406,16.7969 81.0781,17.2656 L80.25,19.0469 Q79.4688,18.6719 78.8125,18.4844 Q78.1563,18.2813 77.3594,18.2813 Z " fill="#000000"/><text fill="#000000" font-family="sans-serif" font-size="14" lengthAdjust="spacing" textLength="29" x="97.75" y="28.432">User</text><line style="stroke:#181818;stroke-width:0.5;" x1="26" x2="166" y1="39" y2="39"/><rect fill="none" height="6" style="stroke:#C82930;stroke-width:1.0;" width="6" x="33" y="51.034"/><text fill="#000000" font-family="sans-serif" font-size="14" lengthAdjust="spacing" textLength="45" x="45" y="57.9659">id: uuid</text><rect fill="none" height="6" style="stroke:#C82930;stroke-width:1.0;" width="6" x="33" y="70.1019"/><text fill="#000000" font-family="sans-serif" font-size="14" lengthAdjust="spacing" textLength="110" x="45" y="77.0339">firstName: string</text><rect fill="none" height="6" style="stroke:#C82930;stroke-width:1.0;" width="6" x="33" y="89.1698"/><text fill="#000000" font-family="sans-serif" font-size="14" lengthAdjust="spacing" textLength="108" x="45" y="96.1018">lastName: string</text><rect fill="none" height="6" style="stroke:#C82930;stroke-width:1.0;" width="6" x="33" y="108.2377"/><text fill="#000000" font-family="sans-serif" font-size="14" lengthAdjust="spacing" textLength="109" x="45" y="115.1697">username: string</text><rect fill="none" height="6" style="stroke:#C82930;stroke-width:1.0;" width="6" x="33" y="127.3056"/><text fill="#000000" font-family="sans-serif" font-size="14" lengthAdjust="spacing" textLength="104" x="45" y="134.2376">account_id: uuid</text><rect fill="none" height="6" style="stroke:#C82930;stroke-width:1.0;" width="6" x="33" y="146.3735"/><text fill="#000000" font-family="sans-serif" font-size="14" lengthAdjust="spacing" textLength="116" x="45" y="153.3055">is_admin: boolean</text><line style="stroke:#181818;stroke-width:0.5;" x1="26" x2="166" y1="161.4075" y2="161.4075"/></g><!--MD5=[f9a29335b499db729be669fd1bd54958]
class Account--><g id="elem_Account"><rect codeLine="10" fill="#F1F1F1" height="219.6113" id="Account" rx="2.5" ry="2.5" style="stroke:#181818;stroke-width:0.5;" width="178" x="7" y="248"/><ellipse cx="64.75" cy="264" fill="#ADD1B2" rx="11" ry="11" style="stroke:#181818;stroke-width:1.0;"/><path d="M64.8594,259.2813 Q63.9375,259.2813 63.2031,259.5938 Q62.4844,259.9063 61.9844,260.5 Q61.4844,261.0781 61.2031,261.9531 Q60.9375,262.8281 60.9375,263.9219 Q60.9375,265.3594 61.375,266.4063 Q61.8281,267.4531 62.6719,268 Q63.5313,268.5469 64.8438,268.5469 Q65.625,268.5469 66.3125,268.4219 Q67.0156,268.2813 68.0156,267.9688 L68.0156,269.8438 Q67.1563,270.1719 66.3906,270.2969 Q65.6406,270.4219 64.625,270.4219 Q62.7031,270.4219 61.3906,269.625 Q60.0938,268.8125 59.4375,267.3438 Q58.7813,265.8594 58.7813,263.8906 Q58.7813,262.4688 59.1719,261.2969 Q59.5781,260.1094 60.3594,259.2344 Q61.1406,258.3594 62.2813,257.8906 Q63.4219,257.4063 64.8906,257.4063 Q65.8438,257.4063 66.7344,257.6094 Q67.6406,257.7969 68.5781,258.2656 L67.75,260.0469 Q66.9688,259.6719 66.3125,259.4844 Q65.6563,259.2813 64.8594,259.2813 Z " fill="#000000"/><text fill="#000000" font-family="sans-serif" font-size="14" lengthAdjust="spacing" textLength="54" x="85.25" y="269.432">Account</text><line style="stroke:#181818;stroke-width:0.5;" x1="8" x2="184" y1="280" y2="280"/><rect fill="none" height="6" style="stroke:#C82930;stroke-width:1.0;" width="6" x="15" y="292.034"/><text fill="#000000" font-family="sans-serif" font-size="14" lengthAdjust="spacing" textLength="45" x="27" y="298.9659">id: uuid</text><rect fill="none" height="6" style="stroke:#C82930;stroke-width:1.0;" width="6" x="15" y="311.1019"/><text fill="#000000" font-family="sans-serif" font-size="14" lengthAdjust="spacing" textLength="139" x="27" y="318.0339">credit_card_rfif: string</text><rect fill="none" height="6" style="stroke:#C82930;stroke-width:1.0;" width="6" x="15" y="330.1698"/><text fill="#000000" font-family="sans-serif" font-size="14" lengthAdjust="spacing" textLength="124" x="27" y="337.1018">cheque_uuid: string</text><rect fill="none" height="6" style="stroke:#C82930;stroke-width:1.0;" width="6" x="15" y="349.2377"/><text fill="#000000" font-family="sans-serif" font-size="14" lengthAdjust="spacing" textLength="107" x="27" y="356.1697">balance: number</text><rect fill="none" height="6" style="stroke:#C82930;stroke-width:1.0;" width="6" x="15" y="368.3056"/><text fill="#000000" font-family="sans-serif" font-size="14" lengthAdjust="spacing" textLength="145" x="27" y="375.2376">refusal_count: number</text><rect fill="none" height="6" style="stroke:#C82930;stroke-width:1.0;" width="6" x="15" y="387.3735"/><text fill="#000000" font-family="sans-serif" font-size="14" lengthAdjust="spacing" textLength="97" x="27" y="394.3055">ceiling: number</text><rect fill="none" height="6" style="stroke:#C82930;stroke-width:1.0;" width="6" x="15" y="406.4415"/><text fill="#000000" font-family="sans-serif" font-size="14" lengthAdjust="spacing" textLength="152" x="27" y="413.3734">max_overdraft: number</text><rect fill="none" height="6" style="stroke:#C82930;stroke-width:1.0;" width="6" x="15" y="425.5094"/><text fill="#000000" font-family="sans-serif" font-size="14" lengthAdjust="spacing" textLength="107" x="27" y="432.4414">created_at: date</text><rect fill="none" height="6" style="stroke:#C82930;stroke-width:1.0;" width="6" x="15" y="444.5773"/><text fill="#000000" font-family="sans-serif" font-size="14" lengthAdjust="spacing" textLength="110" x="27" y="451.5093">blocked: boolean</text><line style="stroke:#181818;stroke-width:0.5;" x1="8" x2="184" y1="459.6113" y2="459.6113"/></g><!--MD5=[72136138052d025cffdce3c22fbd185f]
class Product--><g id="elem_Product"><rect codeLine="22" fill="#F1F1F1" height="124.2717" id="Product" rx="2.5" ry="2.5" style="stroke:#181818;stroke-width:0.5;" width="142" x="202" y="26"/><ellipse cx="243.1" cy="42" fill="#ADD1B2" rx="11" ry="11" style="stroke:#181818;stroke-width:1.0;"/><path d="M243.2094,37.2813 Q242.2875,37.2813 241.5531,37.5938 Q240.8344,37.9063 240.3344,38.5 Q239.8344,39.0781 239.5531,39.9531 Q239.2875,40.8281 239.2875,41.9219 Q239.2875,43.3594 239.725,44.4063 Q240.1781,45.4531 241.0219,46 Q241.8813,46.5469 243.1938,46.5469 Q243.975,46.5469 244.6625,46.4219 Q245.3656,46.2813 246.3656,45.9688 L246.3656,47.8438 Q245.5063,48.1719 244.7406,48.2969 Q243.9906,48.4219 242.975,48.4219 Q241.0531,48.4219 239.7406,47.625 Q238.4438,46.8125 237.7875,45.3438 Q237.1313,43.8594 237.1313,41.8906 Q237.1313,40.4688 237.5219,39.2969 Q237.9281,38.1094 238.7094,37.2344 Q239.4906,36.3594 240.6313,35.8906 Q241.7719,35.4063 243.2406,35.4063 Q244.1938,35.4063 245.0844,35.6094 Q245.9906,35.7969 246.9281,36.2656 L246.1,38.0469 Q245.3188,37.6719 244.6625,37.4844 Q244.0063,37.2813 243.2094,37.2813 Z " fill="#000000"/><text fill="#000000" font-family="sans-serif" font-size="14" lengthAdjust="spacing" textLength="52" x="262.9" y="47.432">Product</text><line style="stroke:#181818;stroke-width:0.5;" x1="203" x2="343" y1="58" y2="58"/><rect fill="none" height="6" style="stroke:#C82930;stroke-width:1.0;" width="6" x="210" y="70.034"/><text fill="#000000" font-family="sans-serif" font-size="14" lengthAdjust="spacing" textLength="45" x="222" y="76.9659">id: uuid</text><rect fill="none" height="6" style="stroke:#C82930;stroke-width:1.0;" width="6" x="210" y="89.1019"/><text fill="#000000" font-family="sans-serif" font-size="14" lengthAdjust="spacing" textLength="81" x="222" y="96.0339">name: string</text><rect fill="none" height="6" style="stroke:#C82930;stroke-width:1.0;" width="6" x="210" y="108.1698"/><text fill="#000000" font-family="sans-serif" font-size="14" lengthAdjust="spacing" textLength="88" x="222" y="115.1018">price: number</text><rect fill="none" height="6" style="stroke:#C82930;stroke-width:1.0;" width="6" x="210" y="127.2377"/><text fill="#000000" font-family="sans-serif" font-size="14" lengthAdjust="spacing" textLength="116" x="222" y="134.1697">description: string</text><line style="stroke:#181818;stroke-width:0.5;" x1="203" x2="343" y1="142.2717" y2="142.2717"/></g><!--MD5=[87e802f94dff5db0b14b612664619da8]
link User to Account--><g id="link_User_Account"><path codeLine="29" d="M96,169.05 C96,193.72 96,221.33 96,247.63 " fill="none" id="User-Account" style="stroke:#181818;stroke-width:1.0;"/><text fill="#000000" font-family="sans-serif" font-size="13" lengthAdjust="spacing" textLength="22" x="97" y="213.897">has</text><text fill="#000000" font-family="sans-serif" font-size="13" lengthAdjust="spacing" textLength="7" x="88.6773" y="191.2162">1</text><text fill="#000000" font-family="sans-serif" font-size="13" lengthAdjust="spacing" textLength="20" x="75.2969" y="236.2075">0..1</text></g><!--MD5=[99aeb001d157f0f778d0ba8fa75e62bf]
@startuml Database
class User {
    - id: uuid
    - firstName: string
    - lastName: string
    - username: string
    - account_id: uuid
    - is_admin: boolean
}

class Account {
    - id: uuid
    - credit_card_rfif: string
    - cheque_uuid: string
    - balance: number
    - refusal_count: number
    - ceiling: number
    - max_overdraft: number
    - created_at: date
    - blocked: boolean
}

class Product {
    - id: uuid
    - name: string
    - price: number
    - description: string
}

User "1" - - "0..1" Account : has

@enduml

PlantUML version 1.2022.7(Mon Aug 22 19:01:30 CEST 2022)
(GPL source distribution)
Java Runtime: OpenJDK Runtime Environment
JVM: OpenJDK 64-Bit Server VM
Default Encoding: UTF-8
Language: en
Country: GB
--></g></svg>