<?xml version="1.0" encoding="UTF-8" standalone="no"?><svg xmlns="http://www.w3.org/2000/svg" xmlns:xlink="http://www.w3.org/1999/xlink" contentStyleType="text/css" height="397px" preserveAspectRatio="none" style="width:472px;height:397px;background:#FFFFFF;" version="1.1" viewBox="0 0 472 397" width="472px" zoomAndPan="magnify"><defs/><g><!--MD5=[e59cf999063292dce8d6ea34dd10a338]
class user--><g id="elem_user"><rect codeLine="1" fill="#F1F1F1" height="129.4844" id="user" rx="2.5" ry="2.5" style="stroke:#181818;stroke-width:0.5;" width="150" x="17" y="7"/><ellipse cx="72.75" cy="23" fill="#ADD1B2" rx="11" ry="11" style="stroke:#181818;stroke-width:1.0;"/><path d="M75.0938,18.6719 C74.1563,18.2344 73.5625,18.0938 72.6875,18.0938 C70.0625,18.0938 68.0625,20.1719 68.0625,22.8906 L68.0625,24.0156 C68.0625,26.5938 70.1719,28.4844 73.0625,28.4844 C74.2813,28.4844 75.4375,28.1875 76.1875,27.6406 C76.7656,27.2344 77.0938,26.7813 77.0938,26.3906 C77.0938,25.9375 76.7031,25.5469 76.2344,25.5469 C76.0156,25.5469 75.8125,25.625 75.625,25.8125 C75.1719,26.2969 75.1719,26.2969 74.9844,26.3906 C74.5625,26.6563 73.875,26.7813 73.1094,26.7813 C71.0625,26.7813 69.7656,25.6875 69.7656,23.9844 L69.7656,22.8906 C69.7656,21.1094 71.0156,19.7969 72.75,19.7969 C73.3281,19.7969 73.9375,19.9531 74.4063,20.2031 C74.8906,20.4844 75.0625,20.7031 75.1563,21.1094 C75.2188,21.5156 75.25,21.6406 75.3906,21.7656 C75.5313,21.9063 75.7656,22.0156 75.9844,22.0156 C76.25,22.0156 76.5156,21.875 76.6875,21.6563 C76.7969,21.5 76.8281,21.3125 76.8281,20.8906 L76.8281,19.4688 C76.8281,19.0313 76.8125,18.9063 76.7188,18.75 C76.5625,18.4844 76.2813,18.3438 75.9844,18.3438 C75.6875,18.3438 75.4844,18.4375 75.2656,18.75 L75.0938,18.6719 Z " fill="#000000"/><text fill="#000000" font-family="sans-serif" font-size="14" lengthAdjust="spacing" textLength="30" x="93.25" y="27.8467">user</text><line style="stroke:#181818;stroke-width:0.5;" x1="18" x2="166" y1="39" y2="39"/><rect fill="none" height="6" style="stroke:#C82930;stroke-width:1.0;" width="6" x="25" y="49.6484"/><text fill="#000000" font-family="sans-serif" font-size="14" lengthAdjust="spacing" textLength="42" x="37" y="55.9951">id: int</text><rect fill="none" height="6" style="stroke:#C82930;stroke-width:1.0;" width="6" x="25" y="65.9453"/><text fill="#000000" font-family="sans-serif" font-size="14" lengthAdjust="spacing" textLength="93" x="37" y="72.292">name: String</text><rect fill="none" height="6" style="stroke:#C82930;stroke-width:1.0;" width="6" x="25" y="82.2422"/><text fill="#000000" font-family="sans-serif" font-size="14" lengthAdjust="spacing" textLength="124" x="37" y="88.5889">firstName: String</text><rect fill="none" height="6" style="stroke:#C82930;stroke-width:1.0;" width="6" x="25" y="98.5391"/><text fill="#000000" font-family="sans-serif" font-size="14" lengthAdjust="spacing" textLength="120" x="37" y="104.8857">password: String</text><rect fill="none" height="6" style="stroke:#C82930;stroke-width:1.0;" width="6" x="25" y="114.8359"/><text fill="#000000" font-family="sans-serif" font-size="14" lengthAdjust="spacing" textLength="85" x="37" y="121.1826">admin: Bool</text><line style="stroke:#181818;stroke-width:0.5;" x1="18" x2="166" y1="128.4844" y2="128.4844"/></g><!--MD5=[f9a29335b499db729be669fd1bd54958]
class Account--><g id="elem_Account"><rect codeLine="9" fill="#F1F1F1" height="194.6719" id="Account" rx="2.5" ry="2.5" style="stroke:#181818;stroke-width:0.5;" width="170" x="7" y="196"/><ellipse cx="58.25" cy="212" fill="#ADD1B2" rx="11" ry="11" style="stroke:#181818;stroke-width:1.0;"/><path d="M60.5938,207.6719 C59.6563,207.2344 59.0625,207.0938 58.1875,207.0938 C55.5625,207.0938 53.5625,209.1719 53.5625,211.8906 L53.5625,213.0156 C53.5625,215.5938 55.6719,217.4844 58.5625,217.4844 C59.7813,217.4844 60.9375,217.1875 61.6875,216.6406 C62.2656,216.2344 62.5938,215.7813 62.5938,215.3906 C62.5938,214.9375 62.2031,214.5469 61.7344,214.5469 C61.5156,214.5469 61.3125,214.625 61.125,214.8125 C60.6719,215.2969 60.6719,215.2969 60.4844,215.3906 C60.0625,215.6563 59.375,215.7813 58.6094,215.7813 C56.5625,215.7813 55.2656,214.6875 55.2656,212.9844 L55.2656,211.8906 C55.2656,210.1094 56.5156,208.7969 58.25,208.7969 C58.8281,208.7969 59.4375,208.9531 59.9063,209.2031 C60.3906,209.4844 60.5625,209.7031 60.6563,210.1094 C60.7188,210.5156 60.75,210.6406 60.8906,210.7656 C61.0313,210.9063 61.2656,211.0156 61.4844,211.0156 C61.75,211.0156 62.0156,210.875 62.1875,210.6563 C62.2969,210.5 62.3281,210.3125 62.3281,209.8906 L62.3281,208.4688 C62.3281,208.0313 62.3125,207.9063 62.2188,207.75 C62.0625,207.4844 61.7813,207.3438 61.4844,207.3438 C61.1875,207.3438 60.9844,207.4375 60.7656,207.75 L60.5938,207.6719 Z " fill="#000000"/><text fill="#000000" font-family="sans-serif" font-size="14" lengthAdjust="spacing" textLength="59" x="78.75" y="216.8467">Account</text><line style="stroke:#181818;stroke-width:0.5;" x1="8" x2="176" y1="228" y2="228"/><rect fill="none" height="6" style="stroke:#C82930;stroke-width:1.0;" width="6" x="15" y="238.6484"/><text fill="#000000" font-family="sans-serif" font-size="14" lengthAdjust="spacing" textLength="42" x="27" y="244.9951">id: int</text><rect fill="none" height="6" style="stroke:#C82930;stroke-width:1.0;" width="6" x="15" y="254.9453"/><text fill="#000000" font-family="sans-serif" font-size="14" lengthAdjust="spacing" textLength="78" x="27" y="261.292">money: int</text><rect fill="none" height="6" style="stroke:#C82930;stroke-width:1.0;" width="6" x="15" y="271.2422"/><text fill="#000000" font-family="sans-serif" font-size="14" lengthAdjust="spacing" textLength="65" x="27" y="277.5889">refus: int</text><rect fill="none" height="6" style="stroke:#C82930;stroke-width:1.0;" width="6" x="15" y="287.5391"/><text fill="#000000" font-family="sans-serif" font-size="14" lengthAdjust="spacing" textLength="84" x="27" y="293.8857">plafond: int</text><rect fill="none" height="6" style="stroke:#C82930;stroke-width:1.0;" width="6" x="15" y="303.8359"/><text fill="#000000" font-family="sans-serif" font-size="14" lengthAdjust="spacing" textLength="132" x="27" y="310.1826">max_decouver: int</text><rect fill="none" height="6" style="stroke:#C82930;stroke-width:1.0;" width="6" x="15" y="320.1328"/><text fill="#000000" font-family="sans-serif" font-size="14" lengthAdjust="spacing" textLength="144" x="27" y="326.4795">date_creation: Date</text><rect fill="none" height="6" style="stroke:#C82930;stroke-width:1.0;" width="6" x="15" y="336.4297"/><text fill="#000000" font-family="sans-serif" font-size="14" lengthAdjust="spacing" textLength="99" x="27" y="342.7764">status: Status</text><rect fill="none" height="6" style="stroke:#C82930;stroke-width:1.0;" width="6" x="15" y="352.7266"/><text fill="#000000" font-family="sans-serif" font-size="14" lengthAdjust="spacing" textLength="95" x="27" y="359.0732">RFIDUUID: int</text><rect fill="none" height="6" style="stroke:#C82930;stroke-width:1.0;" width="6" x="15" y="369.0234"/><text fill="#000000" font-family="sans-serif" font-size="14" lengthAdjust="spacing" textLength="95" x="27" y="375.3701">chetUUID: int</text><line style="stroke:#181818;stroke-width:0.5;" x1="8" x2="176" y1="382.6719" y2="382.6719"/></g><!--MD5=[c0da10ff3fd7ccb0fca95ebdfb298409]
class Produits--><g id="elem_Produits"><rect codeLine="21" fill="#F1F1F1" height="96.8906" id="Produits" rx="2.5" ry="2.5" style="stroke:#181818;stroke-width:0.5;" width="150" x="202" y="23"/><ellipse cx="243.55" cy="39" fill="#ADD1B2" rx="11" ry="11" style="stroke:#181818;stroke-width:1.0;"/><path d="M245.8938,34.6719 C244.9563,34.2344 244.3625,34.0938 243.4875,34.0938 C240.8625,34.0938 238.8625,36.1719 238.8625,38.8906 L238.8625,40.0156 C238.8625,42.5938 240.9719,44.4844 243.8625,44.4844 C245.0813,44.4844 246.2375,44.1875 246.9875,43.6406 C247.5656,43.2344 247.8938,42.7813 247.8938,42.3906 C247.8938,41.9375 247.5031,41.5469 247.0344,41.5469 C246.8156,41.5469 246.6125,41.625 246.425,41.8125 C245.9719,42.2969 245.9719,42.2969 245.7844,42.3906 C245.3625,42.6563 244.675,42.7813 243.9094,42.7813 C241.8625,42.7813 240.5656,41.6875 240.5656,39.9844 L240.5656,38.8906 C240.5656,37.1094 241.8156,35.7969 243.55,35.7969 C244.1281,35.7969 244.7375,35.9531 245.2063,36.2031 C245.6906,36.4844 245.8625,36.7031 245.9563,37.1094 C246.0188,37.5156 246.05,37.6406 246.1906,37.7656 C246.3313,37.9063 246.5656,38.0156 246.7844,38.0156 C247.05,38.0156 247.3156,37.875 247.4875,37.6563 C247.5969,37.5 247.6281,37.3125 247.6281,36.8906 L247.6281,35.4688 C247.6281,35.0313 247.6125,34.9063 247.5188,34.75 C247.3625,34.4844 247.0813,34.3438 246.7844,34.3438 C246.4875,34.3438 246.2844,34.4375 246.0656,34.75 L245.8938,34.6719 Z " fill="#000000"/><text fill="#000000" font-family="sans-serif" font-size="14" lengthAdjust="spacing" textLength="59" x="263.45" y="43.8467">Produits</text><line style="stroke:#181818;stroke-width:0.5;" x1="203" x2="351" y1="55" y2="55"/><rect fill="none" height="6" style="stroke:#C82930;stroke-width:1.0;" width="6" x="210" y="65.6484"/><text fill="#000000" font-family="sans-serif" font-size="14" lengthAdjust="spacing" textLength="58" x="222" y="71.9951">uudi: int</text><rect fill="none" height="6" style="stroke:#C82930;stroke-width:1.0;" width="6" x="210" y="81.9453"/><text fill="#000000" font-family="sans-serif" font-size="14" lengthAdjust="spacing" textLength="124" x="222" y="88.292">reference: String</text><rect fill="none" height="6" style="stroke:#C82930;stroke-width:1.0;" width="6" x="210" y="98.2422"/><text fill="#000000" font-family="sans-serif" font-size="14" lengthAdjust="spacing" textLength="93" x="222" y="104.5889">name: String</text><line style="stroke:#181818;stroke-width:0.5;" x1="203" x2="351" y1="111.8906" y2="111.8906"/></g><!--MD5=[e3d83ec5fd90ea9f3f2bfe265cb53458]
class Status--><g id="elem_Status"><rect codeLine="28" fill="#F1F1F1" height="113.1875" id="Status" rx="2.5" ry="2.5" style="stroke:#181818;stroke-width:0.5;" width="78" x="387" y="15"/><ellipse cx="402" cy="31" fill="#EB937F" rx="11" ry="11" style="stroke:#181818;stroke-width:1.0;"/><path d="M400.7969,31.875 L402.25,31.875 L402.25,31.9844 C402.25,32.3906 402.2813,32.5469 402.3594,32.7031 C402.5156,32.9531 402.7969,33.1094 403.0938,33.1094 C403.3438,33.1094 403.6094,32.9688 403.7656,32.75 C403.8906,32.5938 403.9219,32.4375 403.9219,31.9844 L403.9219,30.0625 C403.9219,29.9063 403.9219,29.8594 403.9063,29.7031 C403.8438,29.2344 403.5313,28.9219 403.0781,28.9219 C402.8281,28.9219 402.5625,29.0625 402.3906,29.2813 C402.2813,29.4531 402.25,29.6094 402.25,30.0625 L402.25,30.1875 L400.7969,30.1875 L400.7969,27.7813 L404.7813,27.7813 L404.7813,28.6406 C404.7813,29.0469 404.8125,29.2188 404.8906,29.375 C405.0625,29.625 405.3438,29.7813 405.625,29.7813 C405.8906,29.7813 406.1563,29.6406 406.3281,29.4219 C406.4375,29.25 406.4688,29.1094 406.4688,28.6406 L406.4688,26.0938 L398.8438,26.0938 C398.4063,26.0938 398.2813,26.1094 398.125,26.2031 C397.875,26.3594 397.7188,26.6563 397.7188,26.9375 C397.7188,27.2188 397.8594,27.4688 398.0781,27.6406 C398.2344,27.75 398.4219,27.7813 398.8438,27.7813 L399.0938,27.7813 L399.0938,34.2969 L398.8438,34.2969 C398.4375,34.2969 398.2813,34.3125 398.125,34.4219 C397.875,34.5938 397.7188,34.8594 397.7188,35.1563 C397.7188,35.4219 397.8594,35.6719 398.0781,35.8281 C398.2188,35.9531 398.4531,36 398.8438,36 L406.8438,36 L406.8438,33.4219 C406.8438,32.9844 406.8125,32.8438 406.7344,32.6875 C406.5625,32.4375 406.2813,32.2813 406,32.2813 C405.7344,32.2813 405.4688,32.3906 405.2969,32.6406 C405.1875,32.7969 405.1563,32.9375 405.1563,33.4219 L405.1563,34.2969 L400.7969,34.2969 L400.7969,31.875 Z " fill="#000000"/><text fill="#000000" font-family="sans-serif" font-size="14" lengthAdjust="spacing" textLength="46" x="416" y="35.8467">Status</text><line style="stroke:#181818;stroke-width:0.5;" x1="388" x2="464" y1="47" y2="47"/><text fill="#000000" font-family="sans-serif" font-size="14" lengthAdjust="spacing" textLength="52" x="393" y="63.9951">ACTIVE</text><text fill="#000000" font-family="sans-serif" font-size="14" lengthAdjust="spacing" textLength="58" x="393" y="80.292">CLOSED</text><text fill="#000000" font-family="sans-serif" font-size="14" lengthAdjust="spacing" textLength="58" x="393" y="96.5889">FROZEN</text><text fill="#000000" font-family="sans-serif" font-size="14" lengthAdjust="spacing" textLength="30" x="393" y="112.8857">test</text><line style="stroke:#181818;stroke-width:0.5;" x1="388" x2="464" y1="120.1875" y2="120.1875"/></g><!--MD5=[7cd1d0fcbf745b26d3052aa02e6678de]
link user to Account--><g id="link_user_Account"><path codeLine="35" d="M92,136.133 C92,154.788 92,175.62 92,195.842 " fill="none" id="user-Account" style="stroke:#181818;stroke-width:1.0;"/><text fill="#000000" font-family="sans-serif" font-size="13" lengthAdjust="spacing" textLength="8" x="83.5375" y="156.5199">1</text><text fill="#000000" font-family="sans-serif" font-size="13" lengthAdjust="spacing" textLength="23" x="68.1195" y="184.8754">0..*</text></g><!--MD5=[a71acfc546853224cf9475c953aed42d]
@startuml
class user{
    -id: int
    -name: String
    -firstName: String
    -password: String
    -admin: Bool
}

class Account{
    -id: int
    -money: int
    -refus: int
    -plafond: int
    -max_decouver: int
    -date_creation: Date
    -status: Status
    -RFIDUUID: int
    -chetUUID: int
}

class Produits{
    -uudi: int
    -reference: String
    -name: String
}


enum Status{
    ACTIVE
    CLOSED
    FROZEN
    test
}

user "1" - - "0..*" Account
@enduml

PlantUML version 1.2022.13beta7(Unknown compile time)
(GPL source distribution)
Java Runtime: Java(TM) SE Runtime Environment
JVM: Java HotSpot(TM) 64-Bit Server VM
Default Encoding: UTF-8
Language: en
Country: US
--></g></svg>