<?xml version="1.0" encoding="UTF-8" standalone="no"?><svg xmlns="http://www.w3.org/2000/svg" xmlns:xlink="http://www.w3.org/1999/xlink" contentStyleType="text/css" height="431px" preserveAspectRatio="none" style="width:383px;height:431px;background:#FFFFFF;" version="1.1" viewBox="0 0 383 431" width="383px" zoomAndPan="magnify"><defs/><g><!--MD5=[3fd616f346a44cd59a91eb10b19e157c]
class User--><g id="elem_User"><rect codeLine="1" fill="#F1F1F1" height="145.7813" id="User" rx="2.5" ry="2.5" style="stroke:#181818;stroke-width:0.5;" width="155" x="27.5" y="7"/><ellipse cx="85.25" cy="23" fill="#ADD1B2" rx="11" ry="11" style="stroke:#181818;stroke-width:1.0;"/><path d="M87.5938,18.6719 C86.6563,18.2344 86.0625,18.0938 85.1875,18.0938 C82.5625,18.0938 80.5625,20.1719 80.5625,22.8906 L80.5625,24.0156 C80.5625,26.5938 82.6719,28.4844 85.5625,28.4844 C86.7813,28.4844 87.9375,28.1875 88.6875,27.6406 C89.2656,27.2344 89.5938,26.7813 89.5938,26.3906 C89.5938,25.9375 89.2031,25.5469 88.7344,25.5469 C88.5156,25.5469 88.3125,25.625 88.125,25.8125 C87.6719,26.2969 87.6719,26.2969 87.4844,26.3906 C87.0625,26.6563 86.375,26.7813 85.6094,26.7813 C83.5625,26.7813 82.2656,25.6875 82.2656,23.9844 L82.2656,22.8906 C82.2656,21.1094 83.5156,19.7969 85.25,19.7969 C85.8281,19.7969 86.4375,19.9531 86.9063,20.2031 C87.3906,20.4844 87.5625,20.7031 87.6563,21.1094 C87.7188,21.5156 87.75,21.6406 87.8906,21.7656 C88.0313,21.9063 88.2656,22.0156 88.4844,22.0156 C88.75,22.0156 89.0156,21.875 89.1875,21.6563 C89.2969,21.5 89.3281,21.3125 89.3281,20.8906 L89.3281,19.4688 C89.3281,19.0313 89.3125,18.9063 89.2188,18.75 C89.0625,18.4844 88.7813,18.3438 88.4844,18.3438 C88.1875,18.3438 87.9844,18.4375 87.7656,18.75 L87.5938,18.6719 Z " fill="#000000"/><text fill="#000000" font-family="sans-serif" font-size="14" lengthAdjust="spacing" textLength="31" x="105.75" y="27.8467">User</text><line style="stroke:#181818;stroke-width:0.5;" x1="28.5" x2="181.5" y1="39" y2="39"/><rect fill="none" height="6" style="stroke:#C82930;stroke-width:1.0;" width="6" x="35.5" y="49.6484"/><text fill="#000000" font-family="sans-serif" font-size="14" lengthAdjust="spacing" textLength="51" x="47.5" y="55.9951">id: uuid</text><rect fill="none" height="6" style="stroke:#C82930;stroke-width:1.0;" width="6" x="35.5" y="65.9453"/><text fill="#000000" font-family="sans-serif" font-size="14" lengthAdjust="spacing" textLength="122" x="47.5" y="72.292">firstName: string</text><rect fill="none" height="6" style="stroke:#C82930;stroke-width:1.0;" width="6" x="35.5" y="82.2422"/><text fill="#000000" font-family="sans-serif" font-size="14" lengthAdjust="spacing" textLength="118" x="47.5" y="88.5889">lastName: string</text><rect fill="none" height="6" style="stroke:#C82930;stroke-width:1.0;" width="6" x="35.5" y="98.5391"/><text fill="#000000" font-family="sans-serif" font-size="14" lengthAdjust="spacing" textLength="121" x="47.5" y="104.8857">username: string</text><rect fill="none" height="6" style="stroke:#C82930;stroke-width:1.0;" width="6" x="35.5" y="114.8359"/><text fill="#000000" font-family="sans-serif" font-size="14" lengthAdjust="spacing" textLength="115" x="47.5" y="121.1826">account_id: uuid</text><rect fill="none" height="6" style="stroke:#C82930;stroke-width:1.0;" width="6" x="35.5" y="131.1328"/><text fill="#000000" font-family="sans-serif" font-size="14" lengthAdjust="spacing" textLength="129" x="47.5" y="137.4795">is_admin: boolean</text><line style="stroke:#181818;stroke-width:0.5;" x1="28.5" x2="181.5" y1="144.7813" y2="144.7813"/></g><!--MD5=[f9a29335b499db729be669fd1bd54958]
class Account--><g id="elem_Account"><rect codeLine="10" fill="#F1F1F1" height="194.6719" id="Account" rx="2.5" ry="2.5" style="stroke:#181818;stroke-width:0.5;" width="196" x="7" y="230"/><ellipse cx="71.25" cy="246" fill="#ADD1B2" rx="11" ry="11" style="stroke:#181818;stroke-width:1.0;"/><path d="M73.5938,241.6719 C72.6563,241.2344 72.0625,241.0938 71.1875,241.0938 C68.5625,241.0938 66.5625,243.1719 66.5625,245.8906 L66.5625,247.0156 C66.5625,249.5938 68.6719,251.4844 71.5625,251.4844 C72.7813,251.4844 73.9375,251.1875 74.6875,250.6406 C75.2656,250.2344 75.5938,249.7813 75.5938,249.3906 C75.5938,248.9375 75.2031,248.5469 74.7344,248.5469 C74.5156,248.5469 74.3125,248.625 74.125,248.8125 C73.6719,249.2969 73.6719,249.2969 73.4844,249.3906 C73.0625,249.6563 72.375,249.7813 71.6094,249.7813 C69.5625,249.7813 68.2656,248.6875 68.2656,246.9844 L68.2656,245.8906 C68.2656,244.1094 69.5156,242.7969 71.25,242.7969 C71.8281,242.7969 72.4375,242.9531 72.9063,243.2031 C73.3906,243.4844 73.5625,243.7031 73.6563,244.1094 C73.7188,244.5156 73.75,244.6406 73.8906,244.7656 C74.0313,244.9063 74.2656,245.0156 74.4844,245.0156 C74.75,245.0156 75.0156,244.875 75.1875,244.6563 C75.2969,244.5 75.3281,244.3125 75.3281,243.8906 L75.3281,242.4688 C75.3281,242.0313 75.3125,241.9063 75.2188,241.75 C75.0625,241.4844 74.7813,241.3438 74.4844,241.3438 C74.1875,241.3438 73.9844,241.4375 73.7656,241.75 L73.5938,241.6719 Z " fill="#000000"/><text fill="#000000" font-family="sans-serif" font-size="14" lengthAdjust="spacing" textLength="59" x="91.75" y="250.8467">Account</text><line style="stroke:#181818;stroke-width:0.5;" x1="8" x2="202" y1="262" y2="262"/><rect fill="none" height="6" style="stroke:#C82930;stroke-width:1.0;" width="6" x="15" y="272.6484"/><text fill="#000000" font-family="sans-serif" font-size="14" lengthAdjust="spacing" textLength="51" x="27" y="278.9951">id: uuid</text><rect fill="none" height="6" style="stroke:#C82930;stroke-width:1.0;" width="6" x="15" y="288.9453"/><text fill="#000000" font-family="sans-serif" font-size="14" lengthAdjust="spacing" textLength="161" x="27" y="295.292">credit_card_rfif: string</text><rect fill="none" height="6" style="stroke:#C82930;stroke-width:1.0;" width="6" x="15" y="305.2422"/><text fill="#000000" font-family="sans-serif" font-size="14" lengthAdjust="spacing" textLength="139" x="27" y="311.5889">cheque_uuid: string</text><rect fill="none" height="6" style="stroke:#C82930;stroke-width:1.0;" width="6" x="15" y="321.5391"/><text fill="#000000" font-family="sans-serif" font-size="14" lengthAdjust="spacing" textLength="121" x="27" y="327.8857">balance: number</text><rect fill="none" height="6" style="stroke:#C82930;stroke-width:1.0;" width="6" x="15" y="337.8359"/><text fill="#000000" font-family="sans-serif" font-size="14" lengthAdjust="spacing" textLength="161" x="27" y="344.1826">refusal_count: number</text><rect fill="none" height="6" style="stroke:#C82930;stroke-width:1.0;" width="6" x="15" y="354.1328"/><text fill="#000000" font-family="sans-serif" font-size="14" lengthAdjust="spacing" textLength="112" x="27" y="360.4795">ceiling: number</text><rect fill="none" height="6" style="stroke:#C82930;stroke-width:1.0;" width="6" x="15" y="370.4297"/><text fill="#000000" font-family="sans-serif" font-size="14" lengthAdjust="spacing" textLength="170" x="27" y="376.7764">max_overdraft: number</text><rect fill="none" height="6" style="stroke:#C82930;stroke-width:1.0;" width="6" x="15" y="386.7266"/><text fill="#000000" font-family="sans-serif" font-size="14" lengthAdjust="spacing" textLength="120" x="27" y="393.0732">created_at: date</text><rect fill="none" height="6" style="stroke:#C82930;stroke-width:1.0;" width="6" x="15" y="403.0234"/><text fill="#000000" font-family="sans-serif" font-size="14" lengthAdjust="spacing" textLength="125" x="27" y="409.3701">blocked: boolean</text><line style="stroke:#181818;stroke-width:0.5;" x1="8" x2="202" y1="416.6719" y2="416.6719"/></g><!--MD5=[72136138052d025cffdce3c22fbd185f]
class Product--><g id="elem_Product"><rect codeLine="22" fill="#F1F1F1" height="113.1875" id="Product" rx="2.5" ry="2.5" style="stroke:#181818;stroke-width:0.5;" width="159" x="217.5" y="23.5"/><ellipse cx="264.75" cy="39.5" fill="#ADD1B2" rx="11" ry="11" style="stroke:#181818;stroke-width:1.0;"/><path d="M267.0938,35.1719 C266.1563,34.7344 265.5625,34.5938 264.6875,34.5938 C262.0625,34.5938 260.0625,36.6719 260.0625,39.3906 L260.0625,40.5156 C260.0625,43.0938 262.1719,44.9844 265.0625,44.9844 C266.2813,44.9844 267.4375,44.6875 268.1875,44.1406 C268.7656,43.7344 269.0938,43.2813 269.0938,42.8906 C269.0938,42.4375 268.7031,42.0469 268.2344,42.0469 C268.0156,42.0469 267.8125,42.125 267.625,42.3125 C267.1719,42.7969 267.1719,42.7969 266.9844,42.8906 C266.5625,43.1563 265.875,43.2813 265.1094,43.2813 C263.0625,43.2813 261.7656,42.1875 261.7656,40.4844 L261.7656,39.3906 C261.7656,37.6094 263.0156,36.2969 264.75,36.2969 C265.3281,36.2969 265.9375,36.4531 266.4063,36.7031 C266.8906,36.9844 267.0625,37.2031 267.1563,37.6094 C267.2188,38.0156 267.25,38.1406 267.3906,38.2656 C267.5313,38.4063 267.7656,38.5156 267.9844,38.5156 C268.25,38.5156 268.5156,38.375 268.6875,38.1563 C268.7969,38 268.8281,37.8125 268.8281,37.3906 L268.8281,35.9688 C268.8281,35.5313 268.8125,35.4063 268.7188,35.25 C268.5625,34.9844 268.2813,34.8438 267.9844,34.8438 C267.6875,34.8438 267.4844,34.9375 267.2656,35.25 L267.0938,35.1719 Z " fill="#000000"/><text fill="#000000" font-family="sans-serif" font-size="14" lengthAdjust="spacing" textLength="56" x="285.25" y="44.3467">Product</text><line style="stroke:#181818;stroke-width:0.5;" x1="218.5" x2="375.5" y1="55.5" y2="55.5"/><rect fill="none" height="6" style="stroke:#C82930;stroke-width:1.0;" width="6" x="225.5" y="66.1484"/><text fill="#000000" font-family="sans-serif" font-size="14" lengthAdjust="spacing" textLength="51" x="237.5" y="72.4951">id: uuid</text><rect fill="none" height="6" style="stroke:#C82930;stroke-width:1.0;" width="6" x="225.5" y="82.4453"/><text fill="#000000" font-family="sans-serif" font-size="14" lengthAdjust="spacing" textLength="91" x="237.5" y="88.792">name: string</text><rect fill="none" height="6" style="stroke:#C82930;stroke-width:1.0;" width="6" x="225.5" y="98.7422"/><text fill="#000000" font-family="sans-serif" font-size="14" lengthAdjust="spacing" textLength="102" x="237.5" y="105.0889">price: number</text><rect fill="none" height="6" style="stroke:#C82930;stroke-width:1.0;" width="6" x="225.5" y="115.0391"/><text fill="#000000" font-family="sans-serif" font-size="14" lengthAdjust="spacing" textLength="133" x="237.5" y="121.3857">description: string</text><line style="stroke:#181818;stroke-width:0.5;" x1="218.5" x2="375.5" y1="128.6875" y2="128.6875"/></g><!--MD5=[87e802f94dff5db0b14b612664619da8]
link User to Account--><g id="link_User_Account"><path codeLine="29" d="M105,153.33 C105,177.233 105,204.224 105,229.659 " fill="none" id="User-Account" style="stroke:#181818;stroke-width:1.0;"/><text fill="#000000" font-family="sans-serif" font-size="13" lengthAdjust="spacing" textLength="23" x="106" y="196.0669">has</text><text fill="#000000" font-family="sans-serif" font-size="13" lengthAdjust="spacing" textLength="8" x="96.6313" y="172.8646">1</text><text fill="#000000" font-family="sans-serif" font-size="13" lengthAdjust="spacing" textLength="24" x="80.1188" y="219.0068">0..1</text></g><!--MD5=[fe787f1ff12cace73d22871c1fa85cf0]
@startuml
class User {
    - id: uuid
    - firstName: string
    - lastName: string
    - username: string
    - account_id: uuid
    - is_admin: boolean
}

class Account {
    - id: uuid
    - credit_card_rfif: string
    - cheque_uuid: string
    - balance: number
    - refusal_count: number
    - ceiling: number
    - max_overdraft: number
    - created_at: date
    - blocked: boolean
}

class Product {
    - id: uuid
    - name: string
    - price: number
    - description: string
}

User "1" - - "0..1" Account : has
@enduml

PlantUML version 1.2022.13beta8(Unknown compile time)
(GPL source distribution)
Java Runtime: Java(TM) SE Runtime Environment
JVM: Java HotSpot(TM) 64-Bit Server VM
Default Encoding: UTF-8
Language: en
Country: US
--></g></svg>