<?xml version="1.0" encoding="UTF-8" standalone="no"?><svg xmlns="http://www.w3.org/2000/svg" xmlns:xlink="http://www.w3.org/1999/xlink" contentStyleType="text/css" height="256px" preserveAspectRatio="none" style="width:527px;height:256px;background:#FFFFFF;" version="1.1" viewBox="0 0 527 256" width="527px" zoomAndPan="magnify"><defs/><g><!--cluster TPE--><g id="cluster_TPE"><rect fill="none" height="243" rx="2.5" ry="2.5" style="stroke:#181818;stroke-width:1.0;" width="223" x="154" y="7"/><text fill="#000000" font-family="sans-serif" font-size="14" font-weight="bold" lengthAdjust="spacing" textLength="30" x="250.5" y="21.9951">TPE</text></g><g id="elem_rec"><ellipse cx="265.7318" cy="214.2464" fill="#F1F1F1" rx="89.2318" ry="20.2464" style="stroke:#181818;stroke-width:0.5;"/><text fill="#000000" font-family="sans-serif" font-size="14" lengthAdjust="spacing" textLength="140" x="195.7318" y="217.093">Resecoive montant</text></g><g id="elem_aff"><ellipse cx="265.712" cy="139.9424" fill="#F1F1F1" rx="82.712" ry="18.9424" style="stroke:#181818;stroke-width:0.5;"/><text fill="#000000" font-family="sans-serif" font-size="14" lengthAdjust="spacing" textLength="125" x="202.5208" y="143.0215">Afficher montant</text></g><g id="elem_trans"><ellipse cx="265.4604" cy="63.9921" fill="#F1F1F1" rx="95.4604" ry="21.4921" style="stroke:#181818;stroke-width:0.5;"/><text fill="#000000" font-family="sans-serif" font-size="14" lengthAdjust="spacing" textLength="154" x="188.4604" y="66.8388">Effectuer transaction</text></g><!--entity cli--><g id="elem_cli"><ellipse cx="58.5" cy="64.5" fill="#F1F1F1" rx="8" ry="8" style="stroke:#181818;stroke-width:0.5;"/><path d="M58.5,72.5 L58.5,99.5 M45.5,80.5 L71.5,80.5 M58.5,99.5 L45.5,114.5 M58.5,99.5 L71.5,114.5 " fill="none" style="stroke:#181818;stroke-width:0.5;"/><text fill="#000000" font-family="sans-serif" font-size="14" lengthAdjust="spacing" textLength="43" x="37" y="128.9951">Client</text></g><!--entity app--><g id="elem_app"><rect fill="#F1F1F1" height="36.2969" rx="2.5" ry="2.5" style="stroke:#181818;stroke-width:0.5;" width="103" x="7" y="196"/><text fill="#000000" font-family="sans-serif" font-size="14" lengthAdjust="spacing" textLength="83" x="17" y="218.9951">Application</text></g><!--entity bank--><g id="elem_bank"><rect fill="#F1F1F1" height="36.2969" rx="2.5" ry="2.5" style="stroke:#181818;stroke-width:0.5;" width="100" x="421" y="46"/><text fill="#000000" font-family="sans-serif" font-size="14" lengthAdjust="spacing" textLength="80" x="431" y="68.9951">API Banque</text></g><!--link app to rec--><g id="link_app_rec"><path d="M110.174,214 C130.212,214 153.836,214 176.495,214 " fill="none" id="app-rec" style="stroke:#181818;stroke-width:1.0;"/></g><!--link cli to aff--><g id="link_cli_aff"><path d="M80.2846,98.664 C108.26,104.941 159.279,116.39 200.544,125.649 " fill="none" id="cli-to-aff" style="stroke:#181818;stroke-width:1.0;"/><polygon fill="#181818" points="205.526,126.767,197.6197,120.8942,200.6472,125.6727,195.8687,128.7002,205.526,126.767" style="stroke:#181818;stroke-width:1.0;"/></g><!--link cli to trans--><g id="link_cli_trans"><path d="M80.2846,90.958 C103.6663,87.537 143.146,81.759 179.574,76.428 " fill="none" id="cli-to-trans" style="stroke:#181818;stroke-width:1.0;"/><polygon fill="#181818" points="184.924,75.645,175.4395,72.9909,179.9767,76.3693,176.5984,80.9066,184.924,75.645" style="stroke:#181818;stroke-width:1.0;"/></g><!--link rec to aff--><g id="link_rec_aff"><path d="M265.5,193.7656 C265.5,183.9887 265.5,174.2117 265.5,164.435 " fill="none" id="rec-to-aff" style="stroke:#181818;stroke-width:1.0;"/><polygon fill="#181818" points="265.5,159.322,261.5,168.322,265.5,164.322,269.5,168.322,265.5,159.322" style="stroke:#181818;stroke-width:1.0;"/></g><!--link aff to trans--><g id="link_aff_trans"><path d="M265.5,121 C265.5,111.014 265.5,101.028 265.5,91.042 " fill="none" id="aff-to-trans" style="stroke:#181818;stroke-width:1.0;"/><polygon fill="#181818" points="265.5,85.82,261.5,94.82,265.5,90.82,269.5,94.82,265.5,85.82" style="stroke:#181818;stroke-width:1.0;"/></g><!--link trans to bank--><g id="link_trans_bank"><path d="M361.101,64 C381.756,64 402.806,64 420.823,64 " fill="none" id="trans-bank" style="stroke:#181818;stroke-width:1.0;"/></g><!--SRC=[LOzD3i8W48NtSuf9zxs2IJLTk6kC5nXnQ8a82DIDyUuEM7zAGfZ9- -RDmxBEc3r6CquPpoQooiOx89Lzn6Pd3RlS82LKra1HoOsMiUb2i4PHWQjC8S2VVXnwV03AcHChIZ9nOAcykJDUlHFiRIiZQwpJsgY9uueYhTTKhxNicWNBaLmYzGrIUu0dhD8EUzoIkyrScHEv2u14nhQj2UHpKcxgda-z68cCYo8NVq9zYa5nUm40]--></g></svg>