<?xml version="1.0" encoding="UTF-8" standalone="no"?><svg xmlns="http://www.w3.org/2000/svg" xmlns:xlink="http://www.w3.org/1999/xlink" contentStyleType="text/css" height="463px" preserveAspectRatio="none" style="width:1521px;height:463px;background:#FFFFFF;" version="1.1" viewBox="0 0 1521 463" width="1521px" zoomAndPan="magnify"><defs/><g><!--class BankApi--><g id="elem_BankApi"><rect codeLine="1" fill="#F1F1F1" height="227.2656" id="BankApi" rx="2.5" ry="2.5" style="stroke:#181818;stroke-width:0.5;" width="446" x="7" y="229"/><ellipse cx="195.75" cy="245" fill="#ADD1B2" rx="11" ry="11" style="stroke:#181818;stroke-width:1.0;"/><path d="M198.0938,240.6719 C197.1563,240.2344 196.5625,240.0938 195.6875,240.0938 C193.0625,240.0938 191.0625,242.1719 191.0625,244.8906 L191.0625,246.0156 C191.0625,248.5938 193.1719,250.4844 196.0625,250.4844 C197.2813,250.4844 198.4375,250.1875 199.1875,249.6406 C199.7656,249.2344 200.0938,248.7813 200.0938,248.3906 C200.0938,247.9375 199.7031,247.5469 199.2344,247.5469 C199.0156,247.5469 198.8125,247.625 198.625,247.8125 C198.1719,248.2969 198.1719,248.2969 197.9844,248.3906 C197.5625,248.6563 196.875,248.7813 196.1094,248.7813 C194.0625,248.7813 192.7656,247.6875 192.7656,245.9844 L192.7656,244.8906 C192.7656,243.1094 194.0156,241.7969 195.75,241.7969 C196.3281,241.7969 196.9375,241.9531 197.4063,242.2031 C197.8906,242.4844 198.0625,242.7031 198.1563,243.1094 C198.2188,243.5156 198.25,243.6406 198.3906,243.7656 C198.5313,243.9063 198.7656,244.0156 198.9844,244.0156 C199.25,244.0156 199.5156,243.875 199.6875,243.6563 C199.7969,243.5 199.8281,243.3125 199.8281,242.8906 L199.8281,241.4688 C199.8281,241.0313 199.8125,240.9063 199.7188,240.75 C199.5625,240.4844 199.2813,240.3438 198.9844,240.3438 C198.6875,240.3438 198.4844,240.4375 198.2656,240.75 L198.0938,240.6719 Z " fill="#000000"/><text fill="#000000" font-family="sans-serif" font-size="14" lengthAdjust="spacing" textLength="60" x="216.25" y="249.8467">BankApi</text><line style="stroke:#181818;stroke-width:0.5;" x1="8" x2="452" y1="261" y2="261"/><rect fill="none" height="6" style="stroke:#C82930;stroke-width:1.0;" width="6" x="15" y="271.6484"/><text fill="#000000" font-family="sans-serif" font-size="14" lengthAdjust="spacing" textLength="123" x="27" y="277.9951">username: String</text><rect fill="none" height="6" style="stroke:#C82930;stroke-width:1.0;" width="6" x="15" y="287.9453"/><text fill="#000000" font-family="sans-serif" font-size="14" lengthAdjust="spacing" textLength="120" x="27" y="294.292">password: String</text><rect fill="none" height="6" style="stroke:#C82930;stroke-width:1.0;" width="6" x="15" y="304.2422"/><text fill="#000000" font-family="sans-serif" font-size="14" lengthAdjust="spacing" textLength="96" x="27" y="310.5889">token: String</text><rect fill="none" height="6" style="stroke:#C82930;stroke-width:1.0;" width="6" x="15" y="320.5391"/><text fill="#000000" font-family="sans-serif" font-size="14" lengthAdjust="spacing" textLength="67" x="27" y="326.8857">ip: String</text><rect fill="none" height="6" style="stroke:#C82930;stroke-width:1.0;" width="6" x="15" y="336.8359"/><text fill="#000000" font-family="sans-serif" font-size="14" lengthAdjust="spacing" textLength="61" x="27" y="343.1826">port: int</text><rect fill="none" height="6" style="stroke:#C82930;stroke-width:1.0;" width="6" x="15" y="353.1328"/><text fill="#000000" font-family="sans-serif" font-size="14" lengthAdjust="spacing" textLength="129" x="27" y="359.4795">http: HTTPClient*</text><rect fill="none" height="6" style="stroke:#C82930;stroke-width:1.0;" width="6" x="15" y="369.4297"/><text fill="#000000" font-family="sans-serif" font-size="14" lengthAdjust="spacing" textLength="130" x="27" y="375.7764">client: WiFiClient*</text><line style="stroke:#181818;stroke-width:0.5;" x1="8" x2="452" y1="383.0781" y2="383.0781"/><ellipse cx="18" cy="396.7266" fill="#84BE84" rx="3" ry="3" style="stroke:#038048;stroke-width:1.0;"/><text fill="#000000" font-family="sans-serif" font-size="14" lengthAdjust="spacing" textLength="420" x="27" y="400.0732">BankApi(ip: String, Port: int, user:String, password: String)</text><ellipse cx="18" cy="413.0234" fill="#84BE84" rx="3" ry="3" style="stroke:#038048;stroke-width:1.0;"/><text fill="#000000" font-family="sans-serif" font-size="14" lengthAdjust="spacing" textLength="331" x="27" y="416.3701">receiveFrom(userID: String, amount: int): bool</text><ellipse cx="18" cy="429.3203" fill="#84BE84" rx="3" ry="3" style="stroke:#038048;stroke-width:1.0;"/><text fill="#000000" font-family="sans-serif" font-size="14" lengthAdjust="spacing" textLength="359" x="27" y="432.667">receiveFromNFC(userID: String, amount: int): bool</text><rect fill="#F24D5C" height="6" style="stroke:#C82930;stroke-width:1.0;" width="6" x="15" y="442.6172"/><text fill="#000000" font-family="sans-serif" font-size="14" lengthAdjust="spacing" textLength="86" x="27" y="448.9639">login(): bool</text></g><!--class NfcModule--><g id="elem_NfcModule"><rect codeLine="15" fill="#F1F1F1" height="96.8906" id="NfcModule" rx="2.5" ry="2.5" style="stroke:#181818;stroke-width:0.5;" width="255" x="488.5" y="294"/><ellipse cx="574.25" cy="310" fill="#ADD1B2" rx="11" ry="11" style="stroke:#181818;stroke-width:1.0;"/><path d="M576.5938,305.6719 C575.6563,305.2344 575.0625,305.0938 574.1875,305.0938 C571.5625,305.0938 569.5625,307.1719 569.5625,309.8906 L569.5625,311.0156 C569.5625,313.5938 571.6719,315.4844 574.5625,315.4844 C575.7813,315.4844 576.9375,315.1875 577.6875,314.6406 C578.2656,314.2344 578.5938,313.7813 578.5938,313.3906 C578.5938,312.9375 578.2031,312.5469 577.7344,312.5469 C577.5156,312.5469 577.3125,312.625 577.125,312.8125 C576.6719,313.2969 576.6719,313.2969 576.4844,313.3906 C576.0625,313.6563 575.375,313.7813 574.6094,313.7813 C572.5625,313.7813 571.2656,312.6875 571.2656,310.9844 L571.2656,309.8906 C571.2656,308.1094 572.5156,306.7969 574.25,306.7969 C574.8281,306.7969 575.4375,306.9531 575.9063,307.2031 C576.3906,307.4844 576.5625,307.7031 576.6563,308.1094 C576.7188,308.5156 576.75,308.6406 576.8906,308.7656 C577.0313,308.9063 577.2656,309.0156 577.4844,309.0156 C577.75,309.0156 578.0156,308.875 578.1875,308.6563 C578.2969,308.5 578.3281,308.3125 578.3281,307.8906 L578.3281,306.4688 C578.3281,306.0313 578.3125,305.9063 578.2188,305.75 C578.0625,305.4844 577.7813,305.3438 577.4844,305.3438 C577.1875,305.3438 576.9844,305.4375 576.7656,305.75 L576.5938,305.6719 Z " fill="#000000"/><text fill="#000000" font-family="sans-serif" font-size="14" lengthAdjust="spacing" textLength="75" x="594.75" y="314.8467">NfcModule</text><line style="stroke:#181818;stroke-width:0.5;" x1="489.5" x2="742.5" y1="326" y2="326"/><rect fill="none" height="6" style="stroke:#C82930;stroke-width:1.0;" width="6" x="496.5" y="336.6484"/><text fill="#000000" font-family="sans-serif" font-size="14" lengthAdjust="spacing" textLength="106" x="508.5" y="342.9951">reif: MFRC522*</text><line style="stroke:#181818;stroke-width:0.5;" x1="489.5" x2="742.5" y1="350.2969" y2="350.2969"/><ellipse cx="499.5" cy="363.9453" fill="#84BE84" rx="3" ry="3" style="stroke:#038048;stroke-width:1.0;"/><text fill="#000000" font-family="sans-serif" font-size="14" lengthAdjust="spacing" textLength="229" x="508.5" y="367.292">NfcModule(ssPin: int, rstPin: int)</text><ellipse cx="499.5" cy="380.2422" fill="#84BE84" rx="3" ry="3" style="stroke:#038048;stroke-width:1.0;"/><text fill="#000000" font-family="sans-serif" font-size="14" lengthAdjust="spacing" textLength="95" x="508.5" y="383.5889">read(): String</text></g><!--class OledScreen--><g id="elem_OledScreen"><rect codeLine="20" fill="#F1F1F1" height="194.6719" id="OledScreen" rx="2.5" ry="2.5" style="stroke:#181818;stroke-width:0.5;" width="534" x="779" y="245"/><ellipse cx="1000.25" cy="261" fill="#ADD1B2" rx="11" ry="11" style="stroke:#181818;stroke-width:1.0;"/><path d="M1002.5938,256.6719 C1001.6563,256.2344 1001.0625,256.0938 1000.1875,256.0938 C997.5625,256.0938 995.5625,258.1719 995.5625,260.8906 L995.5625,262.0156 C995.5625,264.5938 997.6719,266.4844 1000.5625,266.4844 C1001.7813,266.4844 1002.9375,266.1875 1003.6875,265.6406 C1004.2656,265.2344 1004.5938,264.7813 1004.5938,264.3906 C1004.5938,263.9375 1004.2031,263.5469 1003.7344,263.5469 C1003.5156,263.5469 1003.3125,263.625 1003.125,263.8125 C1002.6719,264.2969 1002.6719,264.2969 1002.4844,264.3906 C1002.0625,264.6563 1001.375,264.7813 1000.6094,264.7813 C998.5625,264.7813 997.2656,263.6875 997.2656,261.9844 L997.2656,260.8906 C997.2656,259.1094 998.5156,257.7969 1000.25,257.7969 C1000.8281,257.7969 1001.4375,257.9531 1001.9063,258.2031 C1002.3906,258.4844 1002.5625,258.7031 1002.6563,259.1094 C1002.7188,259.5156 1002.75,259.6406 1002.8906,259.7656 C1003.0313,259.9063 1003.2656,260.0156 1003.4844,260.0156 C1003.75,260.0156 1004.0156,259.875 1004.1875,259.6563 C1004.2969,259.5 1004.3281,259.3125 1004.3281,258.8906 L1004.3281,257.4688 C1004.3281,257.0313 1004.3125,256.9063 1004.2188,256.75 C1004.0625,256.4844 1003.7813,256.3438 1003.4844,256.3438 C1003.1875,256.3438 1002.9844,256.4375 1002.7656,256.75 L1002.5938,256.6719 Z " fill="#000000"/><text fill="#000000" font-family="sans-serif" font-size="14" lengthAdjust="spacing" textLength="83" x="1020.75" y="265.8467">OledScreen</text><line style="stroke:#181818;stroke-width:0.5;" x1="780" x2="1312" y1="277" y2="277"/><rect fill="none" height="6" style="stroke:#C82930;stroke-width:1.0;" width="6" x="787" y="287.6484"/><text fill="#000000" font-family="sans-serif" font-size="14" lengthAdjust="spacing" textLength="196" x="799" y="293.9951">display: Adafruit_SSD1306*</text><line style="stroke:#181818;stroke-width:0.5;" x1="780" x2="1312" y1="301.2969" y2="301.2969"/><ellipse cx="790" cy="314.9453" fill="#84BE84" rx="3" ry="3" style="stroke:#038048;stroke-width:1.0;"/><text fill="#000000" font-family="sans-serif" font-size="14" lengthAdjust="spacing" textLength="508" x="799" y="318.292">OledScreen(screenWidth:int, screenHeight: int, oledResetPin: int = -1)</text><ellipse cx="790" cy="331.2422" fill="#84BE84" rx="3" ry="3" style="stroke:#038048;stroke-width:1.0;"/><text fill="#000000" font-family="sans-serif" font-size="14" lengthAdjust="spacing" textLength="113" x="799" y="334.5889">welcome(): void</text><ellipse cx="790" cy="347.5391" fill="#84BE84" rx="3" ry="3" style="stroke:#038048;stroke-width:1.0;"/><text fill="#000000" font-family="sans-serif" font-size="14" lengthAdjust="spacing" textLength="226" x="799" y="350.8857">printAmount(amount: int): void</text><ellipse cx="790" cy="363.8359" fill="#84BE84" rx="3" ry="3" style="stroke:#038048;stroke-width:1.0;"/><text fill="#000000" font-family="sans-serif" font-size="14" lengthAdjust="spacing" textLength="180" x="799" y="367.1826">validateAnimation(): void</text><ellipse cx="790" cy="380.1328" fill="#84BE84" rx="3" ry="3" style="stroke:#038048;stroke-width:1.0;"/><text fill="#000000" font-family="sans-serif" font-size="14" lengthAdjust="spacing" textLength="275" x="799" y="383.4795">errorAnimation(message: String): void</text><ellipse cx="790" cy="396.4297" fill="#84BE84" rx="3" ry="3" style="stroke:#038048;stroke-width:1.0;"/><text fill="#000000" font-family="sans-serif" font-size="14" lengthAdjust="spacing" textLength="105" x="799" y="399.7764">process(): void</text><ellipse cx="790" cy="412.7266" fill="#84BE84" rx="3" ry="3" style="stroke:#038048;stroke-width:1.0;"/><text fill="#000000" font-family="sans-serif" font-size="14" lengthAdjust="spacing" textLength="84" x="799" y="416.0732">clear(): void</text><ellipse cx="790" cy="429.0234" fill="#84BE84" rx="3" ry="3" style="stroke:#038048;stroke-width:1.0;"/><text fill="#000000" font-family="sans-serif" font-size="14" lengthAdjust="spacing" textLength="129" x="799" y="432.3701">wifiWaiting(): void</text></g><!--class Program--><g id="elem_Program"><rect codeLine="33" fill="#F1F1F1" height="162.0781" id="Program" rx="2.5" ry="2.5" style="stroke:#181818;stroke-width:0.5;" width="173" x="744.5" y="7"/><ellipse cx="796.25" cy="23" fill="#ADD1B2" rx="11" ry="11" style="stroke:#181818;stroke-width:1.0;"/><path d="M798.5938,18.6719 C797.6563,18.2344 797.0625,18.0938 796.1875,18.0938 C793.5625,18.0938 791.5625,20.1719 791.5625,22.8906 L791.5625,24.0156 C791.5625,26.5938 793.6719,28.4844 796.5625,28.4844 C797.7813,28.4844 798.9375,28.1875 799.6875,27.6406 C800.2656,27.2344 800.5938,26.7813 800.5938,26.3906 C800.5938,25.9375 800.2031,25.5469 799.7344,25.5469 C799.5156,25.5469 799.3125,25.625 799.125,25.8125 C798.6719,26.2969 798.6719,26.2969 798.4844,26.3906 C798.0625,26.6563 797.375,26.7813 796.6094,26.7813 C794.5625,26.7813 793.2656,25.6875 793.2656,23.9844 L793.2656,22.8906 C793.2656,21.1094 794.5156,19.7969 796.25,19.7969 C796.8281,19.7969 797.4375,19.9531 797.9063,20.2031 C798.3906,20.4844 798.5625,20.7031 798.6563,21.1094 C798.7188,21.5156 798.75,21.6406 798.8906,21.7656 C799.0313,21.9063 799.2656,22.0156 799.4844,22.0156 C799.75,22.0156 800.0156,21.875 800.1875,21.6563 C800.2969,21.5 800.3281,21.3125 800.3281,20.8906 L800.3281,19.4688 C800.3281,19.0313 800.3125,18.9063 800.2188,18.75 C800.0625,18.4844 799.7813,18.3438 799.4844,18.3438 C799.1875,18.3438 798.9844,18.4375 798.7656,18.75 L798.5938,18.6719 Z " fill="#000000"/><text fill="#000000" font-family="sans-serif" font-size="14" lengthAdjust="spacing" textLength="61" x="816.75" y="27.8467">Program</text><line style="stroke:#181818;stroke-width:0.5;" x1="745.5" x2="916.5" y1="39" y2="39"/><rect fill="none" height="6" style="stroke:#C82930;stroke-width:1.0;" width="6" x="752.5" y="49.6484"/><text fill="#000000" font-family="sans-serif" font-size="14" lengthAdjust="spacing" textLength="112" x="764.5" y="55.9951">bank: BankApi*</text><rect fill="none" height="6" style="stroke:#C82930;stroke-width:1.0;" width="6" x="752.5" y="65.9453"/><text fill="#000000" font-family="sans-serif" font-size="14" lengthAdjust="spacing" textLength="147" x="764.5" y="72.292">screen: OledScreen*</text><rect fill="none" height="6" style="stroke:#C82930;stroke-width:1.0;" width="6" x="752.5" y="82.2422"/><text fill="#000000" font-family="sans-serif" font-size="14" lengthAdjust="spacing" textLength="119" x="764.5" y="88.5889">NFC: NfcModule*</text><rect fill="none" height="6" style="stroke:#C82930;stroke-width:1.0;" width="6" x="752.5" y="98.5391"/><text fill="#000000" font-family="sans-serif" font-size="14" lengthAdjust="spacing" textLength="120" x="764.5" y="104.8857">qrcode: QrCode*</text><rect fill="none" height="6" style="stroke:#C82930;stroke-width:1.0;" width="6" x="752.5" y="114.8359"/><text fill="#000000" font-family="sans-serif" font-size="14" lengthAdjust="spacing" textLength="88" x="764.5" y="121.1826">tram: String</text><line style="stroke:#181818;stroke-width:0.5;" x1="745.5" x2="916.5" y1="128.4844" y2="128.4844"/><ellipse cx="755.5" cy="142.1328" fill="#84BE84" rx="3" ry="3" style="stroke:#038048;stroke-width:1.0;"/><text fill="#000000" font-family="sans-serif" font-size="14" lengthAdjust="spacing" textLength="71" x="764.5" y="145.4795">Program()</text><ellipse cx="755.5" cy="158.4297" fill="#84BE84" rx="3" ry="3" style="stroke:#038048;stroke-width:1.0;"/><text fill="#000000" font-family="sans-serif" font-size="14" lengthAdjust="spacing" textLength="85" x="764.5" y="161.7764">loop() : void</text></g><!--class QrCode--><g id="elem_QrCode"><rect codeLine="44" fill="#F1F1F1" height="162.0781" id="QrCode" rx="2.5" ry="2.5" style="stroke:#181818;stroke-width:0.5;" width="166" x="1348" y="261.5"/><ellipse cx="1399.75" cy="277.5" fill="#ADD1B2" rx="11" ry="11" style="stroke:#181818;stroke-width:1.0;"/><path d="M1402.0938,273.1719 C1401.1563,272.7344 1400.5625,272.5938 1399.6875,272.5938 C1397.0625,272.5938 1395.0625,274.6719 1395.0625,277.3906 L1395.0625,278.5156 C1395.0625,281.0938 1397.1719,282.9844 1400.0625,282.9844 C1401.2813,282.9844 1402.4375,282.6875 1403.1875,282.1406 C1403.7656,281.7344 1404.0938,281.2813 1404.0938,280.8906 C1404.0938,280.4375 1403.7031,280.0469 1403.2344,280.0469 C1403.0156,280.0469 1402.8125,280.125 1402.625,280.3125 C1402.1719,280.7969 1402.1719,280.7969 1401.9844,280.8906 C1401.5625,281.1563 1400.875,281.2813 1400.1094,281.2813 C1398.0625,281.2813 1396.7656,280.1875 1396.7656,278.4844 L1396.7656,277.3906 C1396.7656,275.6094 1398.0156,274.2969 1399.75,274.2969 C1400.3281,274.2969 1400.9375,274.4531 1401.4063,274.7031 C1401.8906,274.9844 1402.0625,275.2031 1402.1563,275.6094 C1402.2188,276.0156 1402.25,276.1406 1402.3906,276.2656 C1402.5313,276.4063 1402.7656,276.5156 1402.9844,276.5156 C1403.25,276.5156 1403.5156,276.375 1403.6875,276.1563 C1403.7969,276 1403.8281,275.8125 1403.8281,275.3906 L1403.8281,273.9688 C1403.8281,273.5313 1403.8125,273.4063 1403.7188,273.25 C1403.5625,272.9844 1403.2813,272.8438 1402.9844,272.8438 C1402.6875,272.8438 1402.4844,272.9375 1402.2656,273.25 L1402.0938,273.1719 Z " fill="#000000"/><text fill="#000000" font-family="sans-serif" font-size="14" lengthAdjust="spacing" textLength="54" x="1420.25" y="282.3467">QrCode</text><line style="stroke:#181818;stroke-width:0.5;" x1="1349" x2="1513" y1="293.5" y2="293.5"/><rect fill="none" height="6" style="stroke:#C82930;stroke-width:1.0;" width="6" x="1356" y="304.1484"/><text fill="#000000" font-family="sans-serif" font-size="14" lengthAdjust="spacing" textLength="94" x="1368" y="310.4951">result: String</text><rect fill="none" height="6" style="stroke:#C82930;stroke-width:1.0;" width="6" x="1356" y="320.4453"/><text fill="#000000" font-family="sans-serif" font-size="14" lengthAdjust="spacing" textLength="66" x="1368" y="326.792">mili: long</text><line style="stroke:#181818;stroke-width:0.5;" x1="1349" x2="1513" y1="334.0938" y2="334.0938"/><ellipse cx="1359" cy="347.7422" fill="#84BE84" rx="3" ry="3" style="stroke:#038048;stroke-width:1.0;"/><text fill="#000000" font-family="sans-serif" font-size="14" lengthAdjust="spacing" textLength="62" x="1368" y="351.0889">Qrcode()</text><ellipse cx="1359" cy="364.0391" fill="#84BE84" rx="3" ry="3" style="stroke:#038048;stroke-width:1.0;"/><text fill="#000000" font-family="sans-serif" font-size="14" lengthAdjust="spacing" textLength="95" x="1368" y="367.3857">read(): String</text><ellipse cx="1359" cy="380.3359" fill="#84BE84" rx="3" ry="3" style="stroke:#038048;stroke-width:1.0;"/><text fill="#000000" font-family="sans-serif" font-size="14" lengthAdjust="spacing" textLength="118" x="1368" y="383.6826">getUuid(): String</text><ellipse cx="1359" cy="396.6328" fill="#84BE84" rx="3" ry="3" style="stroke:#038048;stroke-width:1.0;"/><text fill="#000000" font-family="sans-serif" font-size="14" lengthAdjust="spacing" textLength="121" x="1368" y="399.9795">getAmount(): int</text><rect fill="#F24D5C" height="6" style="stroke:#C82930;stroke-width:1.0;" width="6" x="1356" y="409.9297"/><text fill="#000000" font-family="sans-serif" font-size="14" lengthAdjust="spacing" textLength="140" x="1368" y="416.2764">readRequest(): void</text></g><!--reverse link Program to BankApi--><g id="link_Program_BankApi"><path codeLine="55" d="M739.386,122.724 C666.226,150.11 561.361,190.389 471,229 C465.162,231.495 459.255,234.046 453.305,236.641 " fill="none" id="Program-backto-BankApi" style="stroke:#181818;stroke-width:1.0;"/><polygon fill="#181818" points="744.159,120.939,734.328,120.3469,739.4761,122.6913,737.1317,127.8395,744.159,120.939" style="stroke:#181818;stroke-width:1.0;"/></g><!--reverse link Program to QrCode--><g id="link_Program_QrCode"><path codeLine="56" d="M922.874,98.912 C1028.23,113.699 1202.89,148.934 1331,229 C1345.07,237.794 1358.32,249.148 1370.28,261.25 " fill="none" id="Program-backto-QrCode" style="stroke:#181818;stroke-width:1.0;"/><polygon fill="#181818" points="917.91,98.223,926.2747,103.4222,922.8625,98.9103,927.3744,95.4981,917.91,98.223" style="stroke:#181818;stroke-width:1.0;"/></g><!--reverse link Program to NfcModule--><g id="link_Program_NfcModule"><path codeLine="57" d="M759.385,173.106 C725.186,213.27 685.514,259.862 656.58,293.842 " fill="none" id="Program-backto-NfcModule" style="stroke:#181818;stroke-width:1.0;"/><polygon fill="#181818" points="762.677,169.24,753.7969,173.4996,759.4356,173.0471,759.8882,178.6858,762.677,169.24" style="stroke:#181818;stroke-width:1.0;"/></g><!--reverse link Program to OledScreen--><g id="link_Program_OledScreen"><path codeLine="58" d="M902.69,173.195 C922.201,196.108 943.488,221.109 963.544,244.662 " fill="none" id="Program-backto-OledScreen" style="stroke:#181818;stroke-width:1.0;"/><polygon fill="#181818" points="899.323,169.24,902.1118,178.6858,902.5644,173.0471,908.2031,173.4996,899.323,169.24" style="stroke:#181818;stroke-width:1.0;"/></g><!--SRC=[ZLF1RXiX4BtxApZYD2irgTe3QW-k8oiz97NiL3vM1CRhKLXc0wojAig_5-_2hhrjfN91l9bvytWCoaZlsLTfdsSrlavON0LhF3WhAn1i7HpQCi5rJ3sGqoCuq3FO4ORrk9PS40njIETT237bzl5nEJS8DbmaNBKdmJQum1nfG- -oI3vmNx9bfhriHOkCZwLE4uS31RY7XQEA7mk-tGnSigB6TcnJmPw8p9z5zulv_zOLp529bcViRQ9Qh- -twevqOo2xxG2tWjqjLlEFrzSNgMUVnRrVeartT3xamt0ZgOyzajkvotS3UgqSWCrjDFhQo5-2pRJSkWR3p_Nwvkh3-q-zmKCDz-ssGHrsektS0RU0vIuRJZ5z1HvwIUmBAwwohWCOHHKSfUq9TKBhA3BCMiFukMydINjfKCi0CukL34XsH0BEaHk25NWlotvOnmr9nVY8GHcGReGTS8iRYI5Iz96tIR9pwQXqidgT93EVuYoAF95vTZkFn8cFEHB7HWnFcj4NfqX7tGzk7lUCXjYdVywaBRNdsLn3LFCfwrLs8ZkUOQnyOyBe6rPeKCJoWVgX5S7_CKuTM4BuqU1VyVIMqzE_VUHOmKi3FfmwcIx1FXT5TkuCw-IVGRrbP-ZWxsy0]--></g></svg>