<?xml version="1.0" encoding="UTF-8" standalone="no"?><svg xmlns="http://www.w3.org/2000/svg" xmlns:xlink="http://www.w3.org/1999/xlink" contentStyleType="text/css" height="403px" preserveAspectRatio="none" style="width:650px;height:403px;background:#FFFFFF;" version="1.1" viewBox="0 0 650 403" width="650px" zoomAndPan="magnify"><defs/><g><!--cluster tpe--><g id="cluster_tpe"><path d="M8.5,6 L39.5,6 A3.75,3.75 0 0 1 42,8.5 L49,28.2969 L529.5,28.2969 A2.5,2.5 0 0 1 532,30.7969 L532,223.5 A2.5,2.5 0 0 1 529.5,226 L8.5,226 A2.5,2.5 0 0 1 6,223.5 L6,8.5 A2.5,2.5 0 0 1 8.5,6 " fill="none" style="stroke:#000000;stroke-width:1.5;"/><line style="stroke:#000000;stroke-width:1.5;" x1="6" x2="49" y1="28.2969" y2="28.2969"/><text fill="#000000" font-family="sans-serif" font-size="14" font-weight="bold" lengthAdjust="spacing" textLength="30" x="10" y="20.9951">TPE</text></g><!--cluster tel--><g id="cluster_tel"><path d="M243.5,283 L317.5,283 A3.75,3.75 0 0 1 320,285.5 L327,305.2969 L427.5,305.2969 A2.5,2.5 0 0 1 430,307.7969 L430,393.5 A2.5,2.5 0 0 1 427.5,396 L243.5,396 A2.5,2.5 0 0 1 241,393.5 L241,285.5 A2.5,2.5 0 0 1 243.5,283 " fill="none" style="stroke:#000000;stroke-width:1.5;"/><line style="stroke:#000000;stroke-width:1.5;" x1="241" x2="327" y1="305.2969" y2="305.2969"/><text fill="#000000" font-family="sans-serif" font-size="14" font-weight="bold" lengthAdjust="spacing" textLength="73" x="245" y="297.9951">Télepone</text></g><!--entity esp--><g id="elem_esp"><polygon fill="#F1F1F1" points="205,174,215,164,293,164,293,200.2969,283,210.2969,205,210.2969,205,174" style="stroke:#181818;stroke-width:0.5;"/><line style="stroke:#181818;stroke-width:0.5;" x1="283" x2="293" y1="174" y2="164"/><line style="stroke:#181818;stroke-width:0.5;" x1="205" x2="283" y1="174" y2="174"/><line style="stroke:#181818;stroke-width:0.5;" x1="283" x2="283" y1="174" y2="210.2969"/><text fill="#000000" font-family="sans-serif" font-size="14" lengthAdjust="spacing" textLength="48" x="220" y="196.9951">ESP 32</text></g><!--entity oled--><g id="elem_oled"><rect fill="#F1F1F1" height="46.2969" rx="2.5" ry="2.5" style="stroke:#181818;stroke-width:0.5;" width="117" x="190.5" y="41"/><rect fill="#F1F1F1" height="10" style="stroke:#181818;stroke-width:0.5;" width="15" x="287.5" y="46"/><rect fill="#F1F1F1" height="2" style="stroke:#181818;stroke-width:0.5;" width="4" x="285.5" y="48"/><rect fill="#F1F1F1" height="2" style="stroke:#181818;stroke-width:0.5;" width="4" x="285.5" y="52"/><text fill="#000000" font-family="sans-serif" font-size="14" lengthAdjust="spacing" textLength="77" x="205.5" y="73.9951">Ecran Oled</text></g><!--entity qr--><g id="elem_qr"><rect fill="#F1F1F1" height="46.2969" rx="2.5" ry="2.5" style="stroke:#181818;stroke-width:0.5;" width="151" x="364.5" y="164"/><rect fill="#F1F1F1" height="10" style="stroke:#181818;stroke-width:0.5;" width="15" x="495.5" y="169"/><rect fill="#F1F1F1" height="2" style="stroke:#181818;stroke-width:0.5;" width="4" x="493.5" y="171"/><rect fill="#F1F1F1" height="2" style="stroke:#181818;stroke-width:0.5;" width="4" x="493.5" y="175"/><text fill="#000000" font-family="sans-serif" font-size="14" lengthAdjust="spacing" textLength="111" x="379.5" y="196.9951">Lecteur Qrcode</text></g><!--entity nfc--><g id="elem_nfc"><rect fill="#F1F1F1" height="46.2969" rx="2.5" ry="2.5" style="stroke:#181818;stroke-width:0.5;" width="127" x="22.5" y="164"/><rect fill="#F1F1F1" height="10" style="stroke:#181818;stroke-width:0.5;" width="15" x="129.5" y="169"/><rect fill="#F1F1F1" height="2" style="stroke:#181818;stroke-width:0.5;" width="4" x="127.5" y="171"/><rect fill="#F1F1F1" height="2" style="stroke:#181818;stroke-width:0.5;" width="4" x="127.5" y="175"/><text fill="#000000" font-family="sans-serif" font-size="14" lengthAdjust="spacing" textLength="87" x="37.5" y="196.9951">Lecteur NFC</text></g><!--entity application--><g id="elem_application"><polygon fill="#F1F1F1" points="284.5,336,294.5,326,405.5,326,405.5,362.2969,395.5,372.2969,284.5,372.2969,284.5,336" style="stroke:#181818;stroke-width:0.5;"/><line style="stroke:#181818;stroke-width:0.5;" x1="395.5" x2="405.5" y1="336" y2="326"/><line style="stroke:#181818;stroke-width:0.5;" x1="284.5" x2="395.5" y1="336" y2="336"/><line style="stroke:#181818;stroke-width:0.5;" x1="395.5" x2="395.5" y1="336" y2="372.2969"/><text fill="#000000" font-family="sans-serif" font-size="14" lengthAdjust="spacing" textLength="81" x="299.5" y="358.9951">application</text></g><!--entity Banque--><g id="elem_Banque"><path d="M551,44.5 L617,44.5 A3.75,3.75 0 0 1 619.5,47 L626.5,66.7969 L641,66.7969 A2.5,2.5 0 0 1 643.5,69.2969 L643.5,81.2969 A2.5,2.5 0 0 1 641,83.7969 L551,83.7969 A2.5,2.5 0 0 1 548.5,81.2969 L548.5,47 A2.5,2.5 0 0 1 551,44.5 " fill="#F1F1F1" style="stroke:#181818;stroke-width:0.5;"/><line style="stroke:#181818;stroke-width:0.5;" x1="548.5" x2="626.5" y1="66.7969" y2="66.7969"/><text fill="#000000" font-family="sans-serif" font-size="14" lengthAdjust="spacing" textLength="53" x="558.5" y="60.4951">Banque</text></g><!--reverse link oled to esp--><g id="link_oled_esp"><path d="M249,92.232 C249,113.882 249,143.781 249,163.947 " fill="none" id="oled-backto-esp" style="stroke:#181818;stroke-width:1.0;"/><polygon fill="#181818" points="249,87.193,245,96.193,249,92.193,253,96.193,249,87.193" style="stroke:#181818;stroke-width:1.0;"/><text fill="#000000" font-family="sans-serif" font-size="13" lengthAdjust="spacing" textLength="20" x="250" y="130.0669">I2C</text></g><!--link esp to qr--><g id="link_esp_qr"><path d="M293.299,187 C314.348,187 340.108,187 364.135,187 " fill="none" id="esp-qr" style="stroke:#181818;stroke-width:1.0;"/><text fill="#000000" font-family="sans-serif" font-size="13" lengthAdjust="spacing" textLength="35" x="311.25" y="180.0669">UART</text></g><!--link nfc to esp--><g id="link_nfc_esp"><path d="M149.954,187 C168.327,187 187.949,187 204.841,187 " fill="none" id="nfc-esp" style="stroke:#181818;stroke-width:1.0;"/><text fill="#000000" font-family="sans-serif" font-size="13" lengthAdjust="spacing" textLength="19" x="167.75" y="180.0669">SPI</text></g><!--link esp to tel--><g id="link_esp_tel"><path d="M249,210.247 C249,221.0663 249,234.903 249,249.6169 C249,256.9738 249,264.55 249,272.078 C249,273.9599 249,275.8389 249,277.7107 C249,278.6465 249,279.5806 249,280.5124 C249,280.9783 249,281.4436 249,281.9082 C249,282.1406 249,282.3727 249,282.6047 " fill="none" id="esp-tel" style="stroke:#181818;stroke-width:1.0;"/><text fill="#000000" font-family="sans-serif" font-size="13" lengthAdjust="spacing" textLength="60" x="250" y="255.0669">USB serie</text></g><!--link Banque to esp--><g id="link_Banque_esp"><path d="M548.479,81.571 C481.101,105.066 358.727,147.738 293.208,170.585 " fill="none" id="Banque-esp" style="stroke:#181818;stroke-width:1.0;stroke-dasharray:7.0,7.0;"/><text fill="#000000" font-family="sans-serif" font-size="13" lengthAdjust="spacing" textLength="33" x="444" y="130.0669">HTTP</text></g><!--SRC=[LOz13e8m44NtFSMaUrZWphWHWf74A4fT6HTD6GsHb59WPJoGv_1YjaCmsDNql_d_PunK3tb7u29FESWEUeDF1kxffdHoMkImY8XWPmXSKcMbXaEDvTNhZHj6i4FLus3XQ9Kp4spjFzfl4jBrJJ4YtWsh8F3ni0IUHGaduF-1ytlnl3w9KNK- -EqMUSRPYp4p7H5BtGx8Puhul6iqZSRnEAnXTfqqfgwKxAj6-nXg36Y9IeiOEhILpsDZCeJXrBqL8kTV]--></g></svg>